<mxfile host="65bd71144e">
    <diagram id="YjDJqb5pIsC0xwP5nwSl" name="Database">
        <mxGraphModel dx="1408" dy="2082" grid="1" gridSize="10" guides="1" tooltips="1" connect="1" arrows="1" fold="1" page="1" pageScale="1" pageWidth="827" pageHeight="1169" math="0" shadow="0">
            <root>
                <mxCell id="0"/>
                <mxCell id="1" parent="0"/>
                <mxCell id="2" value="users" style="swimlane;fontStyle=0;childLayout=stackLayout;horizontal=1;startSize=30;horizontalStack=0;resizeParent=1;resizeParentMax=0;resizeLast=0;collapsible=1;marginBottom=0;whiteSpace=wrap;html=1;fillColor=#dae8fc;strokeColor=#6c8ebf;" parent="1" vertex="1">
                    <mxGeometry x="370" y="730" width="206" height="510" as="geometry"/>
                </mxCell>
                <mxCell id="3" value="id &lt;b&gt;&lt;font color=&quot;#66b2ff&quot;&gt;AUTOINKREMENT&lt;/font&gt;&lt;/b&gt; &lt;b&gt;&lt;font color=&quot;#ff6666&quot;&gt;PK&lt;/font&gt;&lt;/b&gt;" style="text;strokeColor=#b85450;fillColor=#f8cecc;align=left;verticalAlign=middle;spacingLeft=4;spacingRight=4;overflow=hidden;points=[[0,0.5],[1,0.5]];portConstraint=eastwest;rotatable=0;whiteSpace=wrap;html=1;" parent="2" vertex="1">
                    <mxGeometry y="30" width="206" height="30" as="geometry"/>
                </mxCell>
                <mxCell id="4" value="first_name &lt;b&gt;&lt;font color=&quot;#ff6666&quot;&gt;VARCHAR&lt;/font&gt;&lt;/b&gt; &lt;b&gt;&lt;font color=&quot;#66b2ff&quot;&gt;NOT NULL&lt;/font&gt;&lt;/b&gt;" style="text;strokeColor=none;fillColor=none;align=left;verticalAlign=middle;spacingLeft=4;spacingRight=4;overflow=hidden;points=[[0,0.5],[1,0.5]];portConstraint=eastwest;rotatable=0;whiteSpace=wrap;html=1;" parent="2" vertex="1">
                    <mxGeometry y="60" width="206" height="30" as="geometry"/>
                </mxCell>
                <mxCell id="5" value="last_name&amp;nbsp;&lt;b style=&quot;border-color: var(--border-color);&quot;&gt;&lt;font style=&quot;border-color: var(--border-color);&quot; color=&quot;#ff6666&quot;&gt;VARCHAR&lt;/font&gt;&lt;/b&gt;&amp;nbsp;&lt;b style=&quot;border-color: var(--border-color);&quot;&gt;&lt;font style=&quot;border-color: var(--border-color);&quot; color=&quot;#66b2ff&quot;&gt;NOT NULL&lt;/font&gt;&lt;/b&gt;" style="text;strokeColor=none;fillColor=none;align=left;verticalAlign=middle;spacingLeft=4;spacingRight=4;overflow=hidden;points=[[0,0.5],[1,0.5]];portConstraint=eastwest;rotatable=0;whiteSpace=wrap;html=1;" parent="2" vertex="1">
                    <mxGeometry y="90" width="206" height="30" as="geometry"/>
                </mxCell>
                <mxCell id="6" value="middle_name&amp;nbsp;&lt;b style=&quot;border-color: var(--border-color);&quot;&gt;&lt;font style=&quot;border-color: var(--border-color);&quot; color=&quot;#ff6666&quot;&gt;VARCHAR&lt;/font&gt;&lt;/b&gt;&amp;nbsp;&lt;b style=&quot;border-color: var(--border-color);&quot;&gt;&lt;font style=&quot;border-color: var(--border-color);&quot; color=&quot;#66b2ff&quot;&gt;NULL&lt;/font&gt;&lt;/b&gt;" style="text;strokeColor=none;fillColor=none;align=left;verticalAlign=middle;spacingLeft=4;spacingRight=4;overflow=hidden;points=[[0,0.5],[1,0.5]];portConstraint=eastwest;rotatable=0;whiteSpace=wrap;html=1;" parent="2" vertex="1">
                    <mxGeometry y="120" width="206" height="30" as="geometry"/>
                </mxCell>
                <mxCell id="25" value="age &lt;font color=&quot;#ff6666&quot;&gt;&lt;b&gt;INT&lt;/b&gt;&lt;/font&gt; &lt;b&gt;&lt;font color=&quot;#66b2ff&quot;&gt;NULL&lt;/font&gt;&lt;/b&gt;" style="text;strokeColor=none;fillColor=none;align=left;verticalAlign=middle;spacingLeft=4;spacingRight=4;overflow=hidden;points=[[0,0.5],[1,0.5]];portConstraint=eastwest;rotatable=0;whiteSpace=wrap;html=1;" parent="2" vertex="1">
                    <mxGeometry y="150" width="206" height="30" as="geometry"/>
                </mxCell>
                <mxCell id="7" value="role &lt;b&gt;&lt;font color=&quot;#ff6666&quot;&gt;ENUM&lt;/font&gt;&lt;/b&gt;" style="text;strokeColor=#d79b00;fillColor=#ffe6cc;align=left;verticalAlign=middle;spacingLeft=4;spacingRight=4;overflow=hidden;points=[[0,0.5],[1,0.5]];portConstraint=eastwest;rotatable=0;whiteSpace=wrap;html=1;" parent="2" vertex="1">
                    <mxGeometry y="180" width="206" height="30" as="geometry"/>
                </mxCell>
                <mxCell id="24" value="gender &lt;b&gt;&lt;font color=&quot;#ff6666&quot;&gt;ENUM&lt;/font&gt;&lt;/b&gt;" style="text;strokeColor=#d79b00;fillColor=#ffe6cc;align=left;verticalAlign=middle;spacingLeft=4;spacingRight=4;overflow=hidden;points=[[0,0.5],[1,0.5]];portConstraint=eastwest;rotatable=0;whiteSpace=wrap;html=1;" parent="2" vertex="1">
                    <mxGeometry y="210" width="206" height="30" as="geometry"/>
                </mxCell>
                <mxCell id="20" value="image &lt;b&gt;&lt;font color=&quot;#ff6666&quot;&gt;VARCHAR&lt;/font&gt;&lt;/b&gt; &lt;b&gt;&lt;font color=&quot;#66b2ff&quot;&gt;NULL&lt;/font&gt;&lt;/b&gt;" style="text;strokeColor=none;fillColor=none;align=left;verticalAlign=middle;spacingLeft=4;spacingRight=4;overflow=hidden;points=[[0,0.5],[1,0.5]];portConstraint=eastwest;rotatable=0;whiteSpace=wrap;html=1;" parent="2" vertex="1">
                    <mxGeometry y="240" width="206" height="30" as="geometry"/>
                </mxCell>
                <mxCell id="16" value="weight &lt;b&gt;&lt;font color=&quot;#ff6666&quot;&gt;FLOAT&lt;/font&gt;&lt;/b&gt;&amp;nbsp;&lt;b style=&quot;border-color: var(--border-color);&quot;&gt;&lt;font style=&quot;border-color: var(--border-color);&quot; color=&quot;#66b2ff&quot;&gt;NULL&lt;/font&gt;&lt;/b&gt;" style="text;strokeColor=none;fillColor=none;align=left;verticalAlign=middle;spacingLeft=4;spacingRight=4;overflow=hidden;points=[[0,0.5],[1,0.5]];portConstraint=eastwest;rotatable=0;whiteSpace=wrap;html=1;" parent="2" vertex="1">
                    <mxGeometry y="270" width="206" height="30" as="geometry"/>
                </mxCell>
                <mxCell id="17" value="height&amp;nbsp;&lt;b style=&quot;border-color: var(--border-color);&quot;&gt;&lt;font style=&quot;border-color: var(--border-color);&quot; color=&quot;#ff6666&quot;&gt;FLOAT&lt;/font&gt;&lt;/b&gt;&amp;nbsp;&lt;b style=&quot;border-color: var(--border-color);&quot;&gt;&lt;font style=&quot;border-color: var(--border-color);&quot; color=&quot;#66b2ff&quot;&gt;NULL&lt;/font&gt;&lt;/b&gt;" style="text;strokeColor=none;fillColor=none;align=left;verticalAlign=middle;spacingLeft=4;spacingRight=4;overflow=hidden;points=[[0,0.5],[1,0.5]];portConstraint=eastwest;rotatable=0;whiteSpace=wrap;html=1;" parent="2" vertex="1">
                    <mxGeometry y="300" width="206" height="30" as="geometry"/>
                </mxCell>
                <mxCell id="18" value="size_cloth&amp;nbsp;&lt;font style=&quot;border-color: var(--border-color);&quot; color=&quot;#ff6666&quot;&gt;&lt;b style=&quot;border-color: var(--border-color);&quot;&gt;INT&lt;/b&gt;&lt;/font&gt;&amp;nbsp;&lt;b style=&quot;border-color: var(--border-color);&quot;&gt;&lt;font style=&quot;border-color: var(--border-color);&quot; color=&quot;#66b2ff&quot;&gt;NULL&lt;/font&gt;&lt;/b&gt;" style="text;strokeColor=none;fillColor=none;align=left;verticalAlign=middle;spacingLeft=4;spacingRight=4;overflow=hidden;points=[[0,0.5],[1,0.5]];portConstraint=eastwest;rotatable=0;whiteSpace=wrap;html=1;" parent="2" vertex="1">
                    <mxGeometry y="330" width="206" height="30" as="geometry"/>
                </mxCell>
                <mxCell id="8" value="phone &lt;b&gt;&lt;font color=&quot;#ff6666&quot;&gt;CHAR (22)&lt;/font&gt;&lt;/b&gt; &lt;b&gt;&lt;font color=&quot;#66b2ff&quot;&gt;UNIQUE&lt;/font&gt;&lt;/b&gt;" style="text;strokeColor=none;fillColor=none;align=left;verticalAlign=middle;spacingLeft=4;spacingRight=4;overflow=hidden;points=[[0,0.5],[1,0.5]];portConstraint=eastwest;rotatable=0;whiteSpace=wrap;html=1;" parent="2" vertex="1">
                    <mxGeometry y="360" width="206" height="30" as="geometry"/>
                </mxCell>
                <mxCell id="9" value="code &lt;b&gt;&lt;font color=&quot;#ff6666&quot;&gt;CHAR (6) &lt;/font&gt;&lt;font color=&quot;#66b2ff&quot;&gt;NULL&lt;/font&gt;&lt;/b&gt;" style="text;strokeColor=none;fillColor=none;align=left;verticalAlign=middle;spacingLeft=4;spacingRight=4;overflow=hidden;points=[[0,0.5],[1,0.5]];portConstraint=eastwest;rotatable=0;whiteSpace=wrap;html=1;" parent="2" vertex="1">
                    <mxGeometry y="390" width="206" height="30" as="geometry"/>
                </mxCell>
                <mxCell id="10" value="password_admin &lt;b&gt;&lt;font color=&quot;#ff6666&quot;&gt;CHAR (18) &lt;/font&gt;&lt;font color=&quot;#66b2ff&quot;&gt;NULL&lt;/font&gt;&lt;/b&gt;" style="text;strokeColor=none;fillColor=none;align=left;verticalAlign=middle;spacingLeft=4;spacingRight=4;overflow=hidden;points=[[0,0.5],[1,0.5]];portConstraint=eastwest;rotatable=0;whiteSpace=wrap;html=1;" parent="2" vertex="1">
                    <mxGeometry y="420" width="206" height="30" as="geometry"/>
                </mxCell>
                <mxCell id="11" value="created_at &lt;b&gt;&lt;font color=&quot;#ff6666&quot;&gt;TIMESTAMP&lt;/font&gt;&lt;/b&gt;" style="text;strokeColor=none;fillColor=none;align=left;verticalAlign=middle;spacingLeft=4;spacingRight=4;overflow=hidden;points=[[0,0.5],[1,0.5]];portConstraint=eastwest;rotatable=0;whiteSpace=wrap;html=1;" parent="2" vertex="1">
                    <mxGeometry y="450" width="206" height="30" as="geometry"/>
                </mxCell>
                <mxCell id="12" value="updated_at&amp;nbsp;&lt;b style=&quot;border-color: var(--border-color);&quot;&gt;&lt;font style=&quot;border-color: var(--border-color);&quot; color=&quot;#ff6666&quot;&gt;TIMESTAMP&lt;/font&gt;&lt;/b&gt;" style="text;strokeColor=none;fillColor=none;align=left;verticalAlign=middle;spacingLeft=4;spacingRight=4;overflow=hidden;points=[[0,0.5],[1,0.5]];portConstraint=eastwest;rotatable=0;whiteSpace=wrap;html=1;" parent="2" vertex="1">
                    <mxGeometry y="480" width="206" height="30" as="geometry"/>
                </mxCell>
                <mxCell id="45" style="edgeStyle=orthogonalEdgeStyle;shape=link;html=1;exitX=0.5;exitY=0;exitDx=0;exitDy=0;fillColor=#ffe6cc;strokeColor=#d79b00;" parent="1" source="26" target="7" edge="1">
                    <mxGeometry relative="1" as="geometry"/>
                </mxCell>
                <mxCell id="26" value="role ENUM" style="swimlane;fontStyle=0;childLayout=stackLayout;horizontal=1;startSize=30;horizontalStack=0;resizeParent=1;resizeParentMax=0;resizeLast=0;collapsible=1;marginBottom=0;whiteSpace=wrap;html=1;fillColor=#ffe6cc;strokeColor=#d79b00;" parent="1" vertex="1">
                    <mxGeometry x="30" y="1280" width="140" height="120" as="geometry"/>
                </mxCell>
                <mxCell id="27" value="Администратор" style="text;strokeColor=#d6b656;fillColor=#fff2cc;align=left;verticalAlign=middle;spacingLeft=4;spacingRight=4;overflow=hidden;points=[[0,0.5],[1,0.5]];portConstraint=eastwest;rotatable=0;whiteSpace=wrap;html=1;" parent="26" vertex="1">
                    <mxGeometry y="30" width="140" height="30" as="geometry"/>
                </mxCell>
                <mxCell id="28" value="Клиент" style="text;strokeColor=#d6b656;fillColor=#fff2cc;align=left;verticalAlign=middle;spacingLeft=4;spacingRight=4;overflow=hidden;points=[[0,0.5],[1,0.5]];portConstraint=eastwest;rotatable=0;whiteSpace=wrap;html=1;" parent="26" vertex="1">
                    <mxGeometry y="60" width="140" height="30" as="geometry"/>
                </mxCell>
                <mxCell id="43" value="Тренер" style="text;strokeColor=#d6b656;fillColor=#fff2cc;align=left;verticalAlign=middle;spacingLeft=4;spacingRight=4;overflow=hidden;points=[[0,0.5],[1,0.5]];portConstraint=eastwest;rotatable=0;whiteSpace=wrap;html=1;" parent="26" vertex="1">
                    <mxGeometry y="90" width="140" height="30" as="geometry"/>
                </mxCell>
                <mxCell id="50" style="edgeStyle=orthogonalEdgeStyle;shape=link;html=1;exitX=0.5;exitY=0;exitDx=0;exitDy=0;fillColor=#ffe6cc;strokeColor=#d79b00;" parent="1" source="46" target="24" edge="1">
                    <mxGeometry relative="1" as="geometry"/>
                </mxCell>
                <mxCell id="46" value="&lt;span style=&quot;text-align: left;&quot;&gt;gender&lt;/span&gt;&amp;nbsp;ENUM" style="swimlane;fontStyle=0;childLayout=stackLayout;horizontal=1;startSize=30;horizontalStack=0;resizeParent=1;resizeParentMax=0;resizeLast=0;collapsible=1;marginBottom=0;whiteSpace=wrap;html=1;fillColor=#ffe6cc;strokeColor=#d79b00;" parent="1" vertex="1">
                    <mxGeometry x="200" y="1280" width="140" height="90" as="geometry"/>
                </mxCell>
                <mxCell id="47" value="Мужчина" style="text;strokeColor=#d6b656;fillColor=#fff2cc;align=left;verticalAlign=middle;spacingLeft=4;spacingRight=4;overflow=hidden;points=[[0,0.5],[1,0.5]];portConstraint=eastwest;rotatable=0;whiteSpace=wrap;html=1;" parent="46" vertex="1">
                    <mxGeometry y="30" width="140" height="30" as="geometry"/>
                </mxCell>
                <mxCell id="49" value="Жеееенщииинаааааа!!!" style="text;strokeColor=#d6b656;fillColor=#fff2cc;align=left;verticalAlign=middle;spacingLeft=4;spacingRight=4;overflow=hidden;points=[[0,0.5],[1,0.5]];portConstraint=eastwest;rotatable=0;whiteSpace=wrap;html=1;" parent="46" vertex="1">
                    <mxGeometry y="60" width="140" height="30" as="geometry"/>
                </mxCell>
                <mxCell id="51" value="type_workouts" style="swimlane;fontStyle=0;childLayout=stackLayout;horizontal=1;startSize=30;horizontalStack=0;resizeParent=1;resizeParentMax=0;resizeLast=0;collapsible=1;marginBottom=0;whiteSpace=wrap;html=1;fillColor=#dae8fc;strokeColor=#6c8ebf;" parent="1" vertex="1">
                    <mxGeometry x="340" y="500" width="170" height="150" as="geometry"/>
                </mxCell>
                <mxCell id="52" value="id&amp;nbsp;&lt;b style=&quot;border-color: var(--border-color);&quot;&gt;&lt;font style=&quot;border-color: var(--border-color);&quot; color=&quot;#66b2ff&quot;&gt;AUTOINKREMENT&lt;/font&gt;&lt;/b&gt;&amp;nbsp;&lt;b style=&quot;border-color: var(--border-color);&quot;&gt;&lt;font style=&quot;border-color: var(--border-color);&quot; color=&quot;#ff6666&quot;&gt;PK&lt;/font&gt;&lt;/b&gt;" style="text;strokeColor=#b85450;fillColor=#f8cecc;align=left;verticalAlign=middle;spacingLeft=4;spacingRight=4;overflow=hidden;points=[[0,0.5],[1,0.5]];portConstraint=eastwest;rotatable=0;whiteSpace=wrap;html=1;" parent="51" vertex="1">
                    <mxGeometry y="30" width="170" height="30" as="geometry"/>
                </mxCell>
                <mxCell id="53" value="name&amp;nbsp;&lt;b style=&quot;border-color: var(--border-color);&quot;&gt;&lt;font style=&quot;border-color: var(--border-color);&quot; color=&quot;#ff6666&quot;&gt;VARCHAR&lt;/font&gt;&lt;/b&gt;&amp;nbsp;&lt;b style=&quot;border-color: var(--border-color);&quot;&gt;&lt;font style=&quot;border-color: var(--border-color);&quot; color=&quot;#66b2ff&quot;&gt;NOT NULL&lt;/font&gt;&lt;/b&gt;" style="text;strokeColor=none;fillColor=none;align=left;verticalAlign=middle;spacingLeft=4;spacingRight=4;overflow=hidden;points=[[0,0.5],[1,0.5]];portConstraint=eastwest;rotatable=0;whiteSpace=wrap;html=1;" parent="51" vertex="1">
                    <mxGeometry y="60" width="170" height="30" as="geometry"/>
                </mxCell>
                <mxCell id="68" value="created_at&amp;nbsp;&lt;b style=&quot;border-color: var(--border-color);&quot;&gt;&lt;font style=&quot;border-color: var(--border-color);&quot; color=&quot;#ff6666&quot;&gt;TIMESTAMP&lt;/font&gt;&lt;/b&gt;" style="text;strokeColor=none;fillColor=none;align=left;verticalAlign=middle;spacingLeft=4;spacingRight=4;overflow=hidden;points=[[0,0.5],[1,0.5]];portConstraint=eastwest;rotatable=0;whiteSpace=wrap;html=1;" parent="51" vertex="1">
                    <mxGeometry y="90" width="170" height="30" as="geometry"/>
                </mxCell>
                <mxCell id="69" value="updated_at&amp;nbsp;&lt;b style=&quot;border-color: var(--border-color);&quot;&gt;&lt;font style=&quot;border-color: var(--border-color);&quot; color=&quot;#ff6666&quot;&gt;TIMESTAMP&lt;/font&gt;&lt;/b&gt;" style="text;strokeColor=none;fillColor=none;align=left;verticalAlign=middle;spacingLeft=4;spacingRight=4;overflow=hidden;points=[[0,0.5],[1,0.5]];portConstraint=eastwest;rotatable=0;whiteSpace=wrap;html=1;" parent="51" vertex="1">
                    <mxGeometry y="120" width="170" height="30" as="geometry"/>
                </mxCell>
                <mxCell id="70" value="workouts" style="swimlane;fontStyle=0;childLayout=stackLayout;horizontal=1;startSize=30;horizontalStack=0;resizeParent=1;resizeParentMax=0;resizeLast=0;collapsible=1;marginBottom=0;whiteSpace=wrap;html=1;fillColor=#dae8fc;strokeColor=#6c8ebf;" parent="1" vertex="1">
                    <mxGeometry x="618" y="370" width="180" height="240" as="geometry"/>
                </mxCell>
                <mxCell id="71" value="id&amp;nbsp;&lt;b style=&quot;border-color: var(--border-color);&quot;&gt;&lt;font style=&quot;border-color: var(--border-color);&quot; color=&quot;#66b2ff&quot;&gt;AUTOINKREMENT&lt;/font&gt;&lt;/b&gt;&amp;nbsp;&lt;b style=&quot;border-color: var(--border-color);&quot;&gt;&lt;font style=&quot;border-color: var(--border-color);&quot; color=&quot;#ff6666&quot;&gt;PK&lt;/font&gt;&lt;/b&gt;" style="text;strokeColor=#b85450;fillColor=#f8cecc;align=left;verticalAlign=middle;spacingLeft=4;spacingRight=4;overflow=hidden;points=[[0,0.5],[1,0.5]];portConstraint=eastwest;rotatable=0;whiteSpace=wrap;html=1;" parent="70" vertex="1">
                    <mxGeometry y="30" width="180" height="30" as="geometry"/>
                </mxCell>
                <mxCell id="77" value="&lt;span style=&quot;text-align: center;&quot;&gt;type_workout_id &lt;b&gt;&lt;font color=&quot;#ff6666&quot;&gt;INT&lt;/font&gt;&lt;/b&gt; &lt;b&gt;&lt;font color=&quot;#66b2ff&quot;&gt;FK&lt;/font&gt;&lt;/b&gt;&lt;/span&gt;" style="text;strokeColor=#b85450;fillColor=#f8cecc;align=left;verticalAlign=middle;spacingLeft=4;spacingRight=4;overflow=hidden;points=[[0,0.5],[1,0.5]];portConstraint=eastwest;rotatable=0;whiteSpace=wrap;html=1;" parent="70" vertex="1">
                    <mxGeometry y="60" width="180" height="30" as="geometry"/>
                </mxCell>
                <mxCell id="72" value="name&amp;nbsp;&lt;b style=&quot;border-color: var(--border-color);&quot;&gt;&lt;font style=&quot;border-color: var(--border-color);&quot; color=&quot;#ff6666&quot;&gt;VARCHAR&lt;/font&gt;&lt;/b&gt;&amp;nbsp;&lt;b style=&quot;border-color: var(--border-color);&quot;&gt;&lt;font style=&quot;border-color: var(--border-color);&quot; color=&quot;#66b2ff&quot;&gt;NOT NULL&lt;/font&gt;&lt;/b&gt;" style="text;strokeColor=none;fillColor=none;align=left;verticalAlign=middle;spacingLeft=4;spacingRight=4;overflow=hidden;points=[[0,0.5],[1,0.5]];portConstraint=eastwest;rotatable=0;whiteSpace=wrap;html=1;" parent="70" vertex="1">
                    <mxGeometry y="90" width="180" height="30" as="geometry"/>
                </mxCell>
                <mxCell id="75" value="description&amp;nbsp;&lt;b style=&quot;border-color: var(--border-color);&quot;&gt;&lt;font style=&quot;border-color: var(--border-color);&quot; color=&quot;#ff6666&quot;&gt;TEXT&lt;/font&gt;&lt;/b&gt;&amp;nbsp;&lt;b style=&quot;border-color: var(--border-color);&quot;&gt;&lt;font style=&quot;border-color: var(--border-color);&quot; color=&quot;#66b2ff&quot;&gt;NOT NULL&lt;/font&gt;&lt;/b&gt;" style="text;strokeColor=none;fillColor=none;align=left;verticalAlign=middle;spacingLeft=4;spacingRight=4;overflow=hidden;points=[[0,0.5],[1,0.5]];portConstraint=eastwest;rotatable=0;whiteSpace=wrap;html=1;" parent="70" vertex="1">
                    <mxGeometry y="120" width="180" height="30" as="geometry"/>
                </mxCell>
                <mxCell id="76" value="image &lt;b&gt;&lt;font color=&quot;#ff6666&quot;&gt;JSONB&amp;nbsp;&lt;/font&gt;&lt;/b&gt;&lt;b style=&quot;border-color: var(--border-color);&quot;&gt;&lt;font style=&quot;border-color: var(--border-color);&quot; color=&quot;#66b2ff&quot;&gt;NULL&lt;/font&gt;&lt;/b&gt;" style="text;strokeColor=none;fillColor=none;align=left;verticalAlign=middle;spacingLeft=4;spacingRight=4;overflow=hidden;points=[[0,0.5],[1,0.5]];portConstraint=eastwest;rotatable=0;whiteSpace=wrap;html=1;" parent="70" vertex="1">
                    <mxGeometry y="150" width="180" height="30" as="geometry"/>
                </mxCell>
                <mxCell id="82" value="created_at&amp;nbsp;&lt;b style=&quot;border-color: var(--border-color);&quot;&gt;&lt;font style=&quot;border-color: var(--border-color);&quot; color=&quot;#ff6666&quot;&gt;TIMESTAMP&lt;/font&gt;&lt;/b&gt;" style="text;strokeColor=none;fillColor=none;align=left;verticalAlign=middle;spacingLeft=4;spacingRight=4;overflow=hidden;points=[[0,0.5],[1,0.5]];portConstraint=eastwest;rotatable=0;whiteSpace=wrap;html=1;" parent="70" vertex="1">
                    <mxGeometry y="180" width="180" height="30" as="geometry"/>
                </mxCell>
                <mxCell id="83" value="updated_at&amp;nbsp;&lt;b style=&quot;border-color: var(--border-color);&quot;&gt;&lt;font style=&quot;border-color: var(--border-color);&quot; color=&quot;#ff6666&quot;&gt;TIMESTAMP&lt;/font&gt;&lt;/b&gt;" style="text;strokeColor=none;fillColor=none;align=left;verticalAlign=middle;spacingLeft=4;spacingRight=4;overflow=hidden;points=[[0,0.5],[1,0.5]];portConstraint=eastwest;rotatable=0;whiteSpace=wrap;html=1;" parent="70" vertex="1">
                    <mxGeometry y="210" width="180" height="30" as="geometry"/>
                </mxCell>
                <mxCell id="84" value="glampings" style="swimlane;fontStyle=0;childLayout=stackLayout;horizontal=1;startSize=30;horizontalStack=0;resizeParent=1;resizeParentMax=0;resizeLast=0;collapsible=1;marginBottom=0;whiteSpace=wrap;html=1;fillColor=#dae8fc;strokeColor=#6c8ebf;" parent="1" vertex="1">
                    <mxGeometry x="618" y="-340" width="180" height="270" as="geometry"/>
                </mxCell>
                <mxCell id="85" value="id&amp;nbsp;&lt;b style=&quot;border-color: var(--border-color);&quot;&gt;&lt;font style=&quot;border-color: var(--border-color);&quot; color=&quot;#66b2ff&quot;&gt;AUTOINKREMENT&lt;/font&gt;&lt;/b&gt;&amp;nbsp;&lt;b style=&quot;border-color: var(--border-color);&quot;&gt;&lt;font style=&quot;border-color: var(--border-color);&quot; color=&quot;#ff6666&quot;&gt;PK&lt;/font&gt;&lt;/b&gt;" style="text;strokeColor=#b85450;fillColor=#f8cecc;align=left;verticalAlign=middle;spacingLeft=4;spacingRight=4;overflow=hidden;points=[[0,0.5],[1,0.5]];portConstraint=eastwest;rotatable=0;whiteSpace=wrap;html=1;" parent="84" vertex="1">
                    <mxGeometry y="30" width="180" height="30" as="geometry"/>
                </mxCell>
                <mxCell id="87" value="name&amp;nbsp;&lt;b style=&quot;border-color: var(--border-color);&quot;&gt;&lt;font style=&quot;border-color: var(--border-color);&quot; color=&quot;#ff6666&quot;&gt;VARCHAR&lt;/font&gt;&lt;/b&gt;&amp;nbsp;&lt;b style=&quot;border-color: var(--border-color);&quot;&gt;&lt;font style=&quot;border-color: var(--border-color);&quot; color=&quot;#66b2ff&quot;&gt;NOT NULL&lt;/font&gt;&lt;/b&gt;" style="text;strokeColor=none;fillColor=none;align=left;verticalAlign=middle;spacingLeft=4;spacingRight=4;overflow=hidden;points=[[0,0.5],[1,0.5]];portConstraint=eastwest;rotatable=0;whiteSpace=wrap;html=1;" parent="84" vertex="1">
                    <mxGeometry y="60" width="180" height="30" as="geometry"/>
                </mxCell>
                <mxCell id="88" value="description&amp;nbsp;&lt;b style=&quot;border-color: var(--border-color);&quot;&gt;&lt;font style=&quot;border-color: var(--border-color);&quot; color=&quot;#ff6666&quot;&gt;TEXT&lt;/font&gt;&lt;/b&gt;&amp;nbsp;&lt;b style=&quot;border-color: var(--border-color);&quot;&gt;&lt;font style=&quot;border-color: var(--border-color);&quot; color=&quot;#66b2ff&quot;&gt;NOT NULL&lt;/font&gt;&lt;/b&gt;" style="text;strokeColor=none;fillColor=none;align=left;verticalAlign=middle;spacingLeft=4;spacingRight=4;overflow=hidden;points=[[0,0.5],[1,0.5]];portConstraint=eastwest;rotatable=0;whiteSpace=wrap;html=1;" parent="84" vertex="1">
                    <mxGeometry y="90" width="180" height="30" as="geometry"/>
                </mxCell>
                <mxCell id="89" value="image &lt;b&gt;&lt;font color=&quot;#ff6666&quot;&gt;JSONB&amp;nbsp;&lt;/font&gt;&lt;/b&gt;&lt;b style=&quot;border-color: var(--border-color);&quot;&gt;&lt;font style=&quot;border-color: var(--border-color);&quot; color=&quot;#66b2ff&quot;&gt;NULL&lt;/font&gt;&lt;/b&gt;" style="text;strokeColor=none;fillColor=none;align=left;verticalAlign=middle;spacingLeft=4;spacingRight=4;overflow=hidden;points=[[0,0.5],[1,0.5]];portConstraint=eastwest;rotatable=0;whiteSpace=wrap;html=1;" parent="84" vertex="1">
                    <mxGeometry y="120" width="180" height="30" as="geometry"/>
                </mxCell>
                <mxCell id="119" value="date &lt;b&gt;&lt;font color=&quot;#ff6666&quot;&gt;DATE &lt;/font&gt;&lt;font color=&quot;#66b2ff&quot;&gt;NOT NULL&lt;/font&gt;&lt;/b&gt;" style="text;strokeColor=none;fillColor=none;align=left;verticalAlign=middle;spacingLeft=4;spacingRight=4;overflow=hidden;points=[[0,0.5],[1,0.5]];portConstraint=eastwest;rotatable=0;whiteSpace=wrap;html=1;" parent="84" vertex="1">
                    <mxGeometry y="150" width="180" height="30" as="geometry"/>
                </mxCell>
                <mxCell id="120" value="time&amp;nbsp;&lt;b&gt;&lt;font color=&quot;#ff6666&quot;&gt;TIME&amp;nbsp;&lt;/font&gt;&lt;font color=&quot;#66b2ff&quot;&gt;NOT NULL&lt;/font&gt;&lt;/b&gt;" style="text;strokeColor=none;fillColor=none;align=left;verticalAlign=middle;spacingLeft=4;spacingRight=4;overflow=hidden;points=[[0,0.5],[1,0.5]];portConstraint=eastwest;rotatable=0;whiteSpace=wrap;html=1;" parent="84" vertex="1">
                    <mxGeometry y="180" width="180" height="30" as="geometry"/>
                </mxCell>
                <mxCell id="90" value="created_at&amp;nbsp;&lt;b style=&quot;border-color: var(--border-color);&quot;&gt;&lt;font style=&quot;border-color: var(--border-color);&quot; color=&quot;#ff6666&quot;&gt;TIMESTAMP&lt;/font&gt;&lt;/b&gt;" style="text;strokeColor=none;fillColor=none;align=left;verticalAlign=middle;spacingLeft=4;spacingRight=4;overflow=hidden;points=[[0,0.5],[1,0.5]];portConstraint=eastwest;rotatable=0;whiteSpace=wrap;html=1;" parent="84" vertex="1">
                    <mxGeometry y="210" width="180" height="30" as="geometry"/>
                </mxCell>
                <mxCell id="91" value="updated_at&amp;nbsp;&lt;b style=&quot;border-color: var(--border-color);&quot;&gt;&lt;font style=&quot;border-color: var(--border-color);&quot; color=&quot;#ff6666&quot;&gt;TIMESTAMP&lt;/font&gt;&lt;/b&gt;" style="text;strokeColor=none;fillColor=none;align=left;verticalAlign=middle;spacingLeft=4;spacingRight=4;overflow=hidden;points=[[0,0.5],[1,0.5]];portConstraint=eastwest;rotatable=0;whiteSpace=wrap;html=1;" parent="84" vertex="1">
                    <mxGeometry y="240" width="180" height="30" as="geometry"/>
                </mxCell>
                <mxCell id="100" value="schedules" style="swimlane;fontStyle=0;childLayout=stackLayout;horizontal=1;startSize=30;horizontalStack=0;resizeParent=1;resizeParentMax=0;resizeLast=0;collapsible=1;marginBottom=0;whiteSpace=wrap;html=1;fillColor=#dae8fc;strokeColor=#6c8ebf;" parent="1" vertex="1">
                    <mxGeometry x="30" y="-120" width="180" height="270" as="geometry"/>
                </mxCell>
                <mxCell id="101" value="id&amp;nbsp;&lt;b style=&quot;border-color: var(--border-color);&quot;&gt;&lt;font style=&quot;border-color: var(--border-color);&quot; color=&quot;#66b2ff&quot;&gt;AUTOINKREMENT&lt;/font&gt;&lt;/b&gt;&amp;nbsp;&lt;b style=&quot;border-color: var(--border-color);&quot;&gt;&lt;font style=&quot;border-color: var(--border-color);&quot; color=&quot;#ff6666&quot;&gt;PK&lt;/font&gt;&lt;/b&gt;" style="text;strokeColor=#b85450;fillColor=#f8cecc;align=left;verticalAlign=middle;spacingLeft=4;spacingRight=4;overflow=hidden;points=[[0,0.5],[1,0.5]];portConstraint=eastwest;rotatable=0;whiteSpace=wrap;html=1;" parent="100" vertex="1">
                    <mxGeometry y="30" width="180" height="30" as="geometry"/>
                </mxCell>
                <mxCell id="102" value="&lt;span style=&quot;text-align: center;&quot;&gt;hall_id&amp;nbsp;&lt;b&gt;&lt;font color=&quot;#ff6666&quot;&gt;INT&lt;/font&gt;&lt;/b&gt; &lt;b&gt;&lt;font color=&quot;#66b2ff&quot;&gt;FK&lt;/font&gt;&lt;/b&gt;&lt;/span&gt;" style="text;strokeColor=#b85450;fillColor=#f8cecc;align=left;verticalAlign=middle;spacingLeft=4;spacingRight=4;overflow=hidden;points=[[0,0.5],[1,0.5]];portConstraint=eastwest;rotatable=0;whiteSpace=wrap;html=1;" parent="100" vertex="1">
                    <mxGeometry y="60" width="180" height="30" as="geometry"/>
                </mxCell>
                <mxCell id="127" value="&lt;span style=&quot;text-align: center;&quot;&gt;workout_id&amp;nbsp;&lt;b&gt;&lt;font color=&quot;#ff6666&quot;&gt;INT&lt;/font&gt;&lt;/b&gt; &lt;b&gt;&lt;font color=&quot;#66b2ff&quot;&gt;FK&lt;/font&gt;&lt;/b&gt;&lt;/span&gt;" style="text;strokeColor=#b85450;fillColor=#f8cecc;align=left;verticalAlign=middle;spacingLeft=4;spacingRight=4;overflow=hidden;points=[[0,0.5],[1,0.5]];portConstraint=eastwest;rotatable=0;whiteSpace=wrap;html=1;" parent="100" vertex="1">
                    <mxGeometry y="90" width="180" height="30" as="geometry"/>
                </mxCell>
                <mxCell id="129" value="&lt;span style=&quot;text-align: center;&quot;&gt;couch_id&amp;nbsp;&lt;b&gt;&lt;font color=&quot;#ff6666&quot;&gt;INT&lt;/font&gt;&lt;/b&gt; &lt;b&gt;&lt;font color=&quot;#66b2ff&quot;&gt;FK&lt;/font&gt;&lt;/b&gt;&lt;/span&gt;" style="text;strokeColor=#b85450;fillColor=#f8cecc;align=left;verticalAlign=middle;spacingLeft=4;spacingRight=4;overflow=hidden;points=[[0,0.5],[1,0.5]];portConstraint=eastwest;rotatable=0;whiteSpace=wrap;html=1;" parent="100" vertex="1">
                    <mxGeometry y="120" width="180" height="30" as="geometry"/>
                </mxCell>
                <mxCell id="128" value="&lt;span style=&quot;text-align: center;&quot;&gt;schedule_time_id&amp;nbsp;&lt;b&gt;&lt;font color=&quot;#ff6666&quot;&gt;INT&lt;/font&gt;&lt;/b&gt; &lt;b&gt;&lt;font color=&quot;#66b2ff&quot;&gt;FK&lt;/font&gt;&lt;/b&gt;&lt;/span&gt;" style="text;strokeColor=#b85450;fillColor=#f8cecc;align=left;verticalAlign=middle;spacingLeft=4;spacingRight=4;overflow=hidden;points=[[0,0.5],[1,0.5]];portConstraint=eastwest;rotatable=0;whiteSpace=wrap;html=1;" parent="100" vertex="1">
                    <mxGeometry y="150" width="180" height="30" as="geometry"/>
                </mxCell>
                <mxCell id="130" value="date&amp;nbsp;&lt;b style=&quot;border-color: var(--border-color);&quot;&gt;&lt;font style=&quot;border-color: var(--border-color);&quot; color=&quot;#ff6666&quot;&gt;TIMESTAMP&lt;/font&gt;&lt;/b&gt;&lt;b style=&quot;&quot;&gt;&lt;font color=&quot;#ff6666&quot;&gt;&amp;nbsp;&lt;/font&gt;&lt;font color=&quot;#66b2ff&quot;&gt;NOT NULL&lt;/font&gt;&lt;/b&gt;" style="text;strokeColor=none;fillColor=none;align=left;verticalAlign=middle;spacingLeft=4;spacingRight=4;overflow=hidden;points=[[0,0.5],[1,0.5]];portConstraint=eastwest;rotatable=0;whiteSpace=wrap;html=1;" parent="100" vertex="1">
                    <mxGeometry y="180" width="180" height="30" as="geometry"/>
                </mxCell>
                <mxCell id="106" value="created_at&amp;nbsp;&lt;b style=&quot;border-color: var(--border-color);&quot;&gt;&lt;font style=&quot;border-color: var(--border-color);&quot; color=&quot;#ff6666&quot;&gt;TIMESTAMP&lt;/font&gt;&lt;/b&gt;" style="text;strokeColor=none;fillColor=none;align=left;verticalAlign=middle;spacingLeft=4;spacingRight=4;overflow=hidden;points=[[0,0.5],[1,0.5]];portConstraint=eastwest;rotatable=0;whiteSpace=wrap;html=1;" parent="100" vertex="1">
                    <mxGeometry y="210" width="180" height="30" as="geometry"/>
                </mxCell>
                <mxCell id="107" value="updated_at&amp;nbsp;&lt;b style=&quot;border-color: var(--border-color);&quot;&gt;&lt;font style=&quot;border-color: var(--border-color);&quot; color=&quot;#ff6666&quot;&gt;TIMESTAMP&lt;/font&gt;&lt;/b&gt;" style="text;strokeColor=none;fillColor=none;align=left;verticalAlign=middle;spacingLeft=4;spacingRight=4;overflow=hidden;points=[[0,0.5],[1,0.5]];portConstraint=eastwest;rotatable=0;whiteSpace=wrap;html=1;" parent="100" vertex="1">
                    <mxGeometry y="240" width="180" height="30" as="geometry"/>
                </mxCell>
                <mxCell id="108" value="schedule_times" style="swimlane;fontStyle=0;childLayout=stackLayout;horizontal=1;startSize=30;horizontalStack=0;resizeParent=1;resizeParentMax=0;resizeLast=0;collapsible=1;marginBottom=0;whiteSpace=wrap;html=1;fillColor=#dae8fc;strokeColor=#6c8ebf;" parent="1" vertex="1">
                    <mxGeometry x="618" y="190" width="180" height="150" as="geometry"/>
                </mxCell>
                <mxCell id="109" value="id&amp;nbsp;&lt;b style=&quot;border-color: var(--border-color);&quot;&gt;&lt;font style=&quot;border-color: var(--border-color);&quot; color=&quot;#66b2ff&quot;&gt;AUTOINKREMENT&lt;/font&gt;&lt;/b&gt;&amp;nbsp;&lt;b style=&quot;border-color: var(--border-color);&quot;&gt;&lt;font style=&quot;border-color: var(--border-color);&quot; color=&quot;#ff6666&quot;&gt;PK&lt;/font&gt;&lt;/b&gt;" style="text;strokeColor=#b85450;fillColor=#f8cecc;align=left;verticalAlign=middle;spacingLeft=4;spacingRight=4;overflow=hidden;points=[[0,0.5],[1,0.5]];portConstraint=eastwest;rotatable=0;whiteSpace=wrap;html=1;" parent="108" vertex="1">
                    <mxGeometry y="30" width="180" height="30" as="geometry"/>
                </mxCell>
                <mxCell id="111" value="start_time&amp;nbsp;&lt;font color=&quot;#ff6666&quot;&gt;&lt;b&gt;TIME&lt;/b&gt;&lt;/font&gt;&amp;nbsp;&lt;b style=&quot;border-color: var(--border-color);&quot;&gt;&lt;font style=&quot;border-color: var(--border-color);&quot; color=&quot;#66b2ff&quot;&gt;NOT NULL&lt;/font&gt;&lt;/b&gt;" style="text;strokeColor=none;fillColor=none;align=left;verticalAlign=middle;spacingLeft=4;spacingRight=4;overflow=hidden;points=[[0,0.5],[1,0.5]];portConstraint=eastwest;rotatable=0;whiteSpace=wrap;html=1;" parent="108" vertex="1">
                    <mxGeometry y="60" width="180" height="30" as="geometry"/>
                </mxCell>
                <mxCell id="114" value="created_at&amp;nbsp;&lt;b style=&quot;border-color: var(--border-color);&quot;&gt;&lt;font style=&quot;border-color: var(--border-color);&quot; color=&quot;#ff6666&quot;&gt;TIMESTAMP&lt;/font&gt;&lt;/b&gt;" style="text;strokeColor=none;fillColor=none;align=left;verticalAlign=middle;spacingLeft=4;spacingRight=4;overflow=hidden;points=[[0,0.5],[1,0.5]];portConstraint=eastwest;rotatable=0;whiteSpace=wrap;html=1;" parent="108" vertex="1">
                    <mxGeometry y="90" width="180" height="30" as="geometry"/>
                </mxCell>
                <mxCell id="115" value="updated_at&amp;nbsp;&lt;b style=&quot;border-color: var(--border-color);&quot;&gt;&lt;font style=&quot;border-color: var(--border-color);&quot; color=&quot;#ff6666&quot;&gt;TIMESTAMP&lt;/font&gt;&lt;/b&gt;" style="text;strokeColor=none;fillColor=none;align=left;verticalAlign=middle;spacingLeft=4;spacingRight=4;overflow=hidden;points=[[0,0.5],[1,0.5]];portConstraint=eastwest;rotatable=0;whiteSpace=wrap;html=1;" parent="108" vertex="1">
                    <mxGeometry y="120" width="180" height="30" as="geometry"/>
                </mxCell>
                <mxCell id="117" style="edgeStyle=orthogonalEdgeStyle;html=1;exitX=0;exitY=0.5;exitDx=0;exitDy=0;entryX=1;entryY=0.5;entryDx=0;entryDy=0;strokeWidth=2;fontSize=14;fontColor=#66B2FF;fillColor=#f8cecc;strokeColor=#b85450;" parent="1" source="77" target="52" edge="1">
                    <mxGeometry relative="1" as="geometry"/>
                </mxCell>
                <mxCell id="118" value="OTM" style="edgeLabel;html=1;align=center;verticalAlign=middle;resizable=0;points=[];fontSize=14;fontColor=#FF6666;fontStyle=1" parent="117" vertex="1" connectable="0">
                    <mxGeometry x="-0.1589" y="-2" relative="1" as="geometry">
                        <mxPoint as="offset"/>
                    </mxGeometry>
                </mxCell>
                <mxCell id="134" style="edgeStyle=orthogonalEdgeStyle;html=1;exitX=0;exitY=0.25;exitDx=0;exitDy=0;strokeWidth=2;fontSize=14;fontColor=#FF6666;fillColor=#f8cecc;strokeColor=#b85450;" parent="1" source="121" target="102" edge="1">
                    <mxGeometry relative="1" as="geometry"/>
                </mxCell>
                <mxCell id="135" value="&lt;b&gt;MTM&lt;/b&gt;" style="edgeLabel;html=1;align=center;verticalAlign=middle;resizable=0;points=[];fontSize=14;fontColor=#FF6666;" parent="134" vertex="1" connectable="0">
                    <mxGeometry x="-0.1085" relative="1" as="geometry">
                        <mxPoint as="offset"/>
                    </mxGeometry>
                </mxCell>
                <mxCell id="121" value="halls" style="swimlane;fontStyle=0;childLayout=stackLayout;horizontal=1;startSize=30;horizontalStack=0;resizeParent=1;resizeParentMax=0;resizeLast=0;collapsible=1;marginBottom=0;whiteSpace=wrap;html=1;fillColor=#dae8fc;strokeColor=#6c8ebf;" parent="1" vertex="1">
                    <mxGeometry x="610" y="-20" width="196" height="180" as="geometry"/>
                </mxCell>
                <mxCell id="122" value="id&amp;nbsp;&lt;b style=&quot;border-color: var(--border-color);&quot;&gt;&lt;font style=&quot;border-color: var(--border-color);&quot; color=&quot;#66b2ff&quot;&gt;AUTOINKREMENT&lt;/font&gt;&lt;/b&gt;&amp;nbsp;&lt;b style=&quot;border-color: var(--border-color);&quot;&gt;&lt;font style=&quot;border-color: var(--border-color);&quot; color=&quot;#ff6666&quot;&gt;PK&lt;/font&gt;&lt;/b&gt;" style="text;strokeColor=#b85450;fillColor=#f8cecc;align=left;verticalAlign=middle;spacingLeft=4;spacingRight=4;overflow=hidden;points=[[0,0.5],[1,0.5]];portConstraint=eastwest;rotatable=0;whiteSpace=wrap;html=1;" parent="121" vertex="1">
                    <mxGeometry y="30" width="196" height="30" as="geometry"/>
                </mxCell>
                <mxCell id="123" value="name&amp;nbsp;&lt;b style=&quot;border-color: var(--border-color);&quot;&gt;&lt;font style=&quot;border-color: var(--border-color);&quot; color=&quot;#ff6666&quot;&gt;VARCHAR&lt;/font&gt;&lt;/b&gt;&amp;nbsp;&lt;b style=&quot;border-color: var(--border-color);&quot;&gt;&lt;font style=&quot;border-color: var(--border-color);&quot; color=&quot;#66b2ff&quot;&gt;NOT NULL&lt;/font&gt;&lt;/b&gt;" style="text;strokeColor=none;fillColor=none;align=left;verticalAlign=middle;spacingLeft=4;spacingRight=4;overflow=hidden;points=[[0,0.5],[1,0.5]];portConstraint=eastwest;rotatable=0;whiteSpace=wrap;html=1;" parent="121" vertex="1">
                    <mxGeometry y="60" width="196" height="30" as="geometry"/>
                </mxCell>
                <mxCell id="126" value="addres&amp;nbsp;&lt;b style=&quot;border-color: var(--border-color);&quot;&gt;&lt;font style=&quot;border-color: var(--border-color);&quot; color=&quot;#ff6666&quot;&gt;VARCHAR&lt;/font&gt;&lt;/b&gt;&amp;nbsp;&lt;b style=&quot;border-color: var(--border-color);&quot;&gt;&lt;font style=&quot;border-color: var(--border-color);&quot; color=&quot;#66b2ff&quot;&gt;NOT NULL&lt;/font&gt;&lt;/b&gt;" style="text;strokeColor=none;fillColor=none;align=left;verticalAlign=middle;spacingLeft=4;spacingRight=4;overflow=hidden;points=[[0,0.5],[1,0.5]];portConstraint=eastwest;rotatable=0;whiteSpace=wrap;html=1;" parent="121" vertex="1">
                    <mxGeometry y="90" width="196" height="30" as="geometry"/>
                </mxCell>
                <mxCell id="124" value="created_at&amp;nbsp;&lt;b style=&quot;border-color: var(--border-color);&quot;&gt;&lt;font style=&quot;border-color: var(--border-color);&quot; color=&quot;#ff6666&quot;&gt;TIMESTAMP&lt;/font&gt;&lt;/b&gt;" style="text;strokeColor=none;fillColor=none;align=left;verticalAlign=middle;spacingLeft=4;spacingRight=4;overflow=hidden;points=[[0,0.5],[1,0.5]];portConstraint=eastwest;rotatable=0;whiteSpace=wrap;html=1;" parent="121" vertex="1">
                    <mxGeometry y="120" width="196" height="30" as="geometry"/>
                </mxCell>
                <mxCell id="125" value="updated_at&amp;nbsp;&lt;b style=&quot;border-color: var(--border-color);&quot;&gt;&lt;font style=&quot;border-color: var(--border-color);&quot; color=&quot;#ff6666&quot;&gt;TIMESTAMP&lt;/font&gt;&lt;/b&gt;" style="text;strokeColor=none;fillColor=none;align=left;verticalAlign=middle;spacingLeft=4;spacingRight=4;overflow=hidden;points=[[0,0.5],[1,0.5]];portConstraint=eastwest;rotatable=0;whiteSpace=wrap;html=1;" parent="121" vertex="1">
                    <mxGeometry y="150" width="196" height="30" as="geometry"/>
                </mxCell>
                <mxCell id="132" style="edgeStyle=orthogonalEdgeStyle;html=1;exitX=0;exitY=0.5;exitDx=0;exitDy=0;entryX=1;entryY=0.5;entryDx=0;entryDy=0;strokeWidth=2;fontSize=14;fontColor=#66B2FF;fillColor=#f8cecc;strokeColor=#b85450;" parent="1" source="3" target="100" edge="1">
                    <mxGeometry relative="1" as="geometry"/>
                </mxCell>
                <mxCell id="133" value="&lt;font color=&quot;#ff6666&quot;&gt;&lt;b&gt;OTM&lt;/b&gt;&lt;/font&gt;" style="edgeLabel;html=1;align=center;verticalAlign=middle;resizable=0;points=[];fontSize=14;fontColor=#66B2FF;" parent="132" vertex="1" connectable="0">
                    <mxGeometry x="-0.0674" relative="1" as="geometry">
                        <mxPoint as="offset"/>
                    </mxGeometry>
                </mxCell>
                <mxCell id="136" style="edgeStyle=orthogonalEdgeStyle;html=1;exitX=0;exitY=0.5;exitDx=0;exitDy=0;entryX=1;entryY=0.5;entryDx=0;entryDy=0;strokeWidth=2;fontSize=14;fontColor=#FF6666;fillColor=#f8cecc;strokeColor=#b85450;" parent="1" source="71" target="127" edge="1">
                    <mxGeometry relative="1" as="geometry">
                        <Array as="points">
                            <mxPoint x="360" y="415"/>
                            <mxPoint x="360" y="-15"/>
                        </Array>
                    </mxGeometry>
                </mxCell>
                <mxCell id="137" value="&lt;b&gt;MTM&lt;/b&gt;" style="edgeLabel;html=1;align=center;verticalAlign=middle;resizable=0;points=[];fontSize=14;fontColor=#FF6666;" parent="136" vertex="1" connectable="0">
                    <mxGeometry x="-0.1679" relative="1" as="geometry">
                        <mxPoint as="offset"/>
                    </mxGeometry>
                </mxCell>
                <mxCell id="138" style="edgeStyle=orthogonalEdgeStyle;html=1;exitX=0;exitY=0.5;exitDx=0;exitDy=0;entryX=1;entryY=0.5;entryDx=0;entryDy=0;strokeWidth=2;fontSize=14;fontColor=#FF6666;fillColor=#f8cecc;strokeColor=#b85450;dashed=1;dashPattern=8 8;" parent="1" source="109" target="128" edge="1">
                    <mxGeometry relative="1" as="geometry"/>
                </mxCell>
                <mxCell id="139" value="&lt;b&gt;MTM&lt;/b&gt;" style="edgeLabel;html=1;align=center;verticalAlign=middle;resizable=0;points=[];fontSize=14;fontColor=#FF6666;" parent="138" vertex="1" connectable="0">
                    <mxGeometry x="-0.0618" y="-1" relative="1" as="geometry">
                        <mxPoint as="offset"/>
                    </mxGeometry>
                </mxCell>
                <mxCell id="140" style="edgeStyle=orthogonalEdgeStyle;html=1;exitX=0;exitY=0.5;exitDx=0;exitDy=0;dashed=1;dashPattern=8 8;strokeWidth=2;fontSize=14;fontColor=#FF6666;fillColor=#f8cecc;strokeColor=#b85450;" parent="1" source="85" target="127" edge="1">
                    <mxGeometry relative="1" as="geometry"/>
                </mxCell>
                <mxCell id="141" value="&lt;b&gt;MTM&lt;/b&gt;" style="edgeLabel;html=1;align=center;verticalAlign=middle;resizable=0;points=[];fontSize=14;fontColor=#FF6666;" parent="140" vertex="1" connectable="0">
                    <mxGeometry x="0.0788" y="-3" relative="1" as="geometry">
                        <mxPoint as="offset"/>
                    </mxGeometry>
                </mxCell>
                <mxCell id="142" value="records" style="swimlane;fontStyle=0;childLayout=stackLayout;horizontal=1;startSize=30;horizontalStack=0;resizeParent=1;resizeParentMax=0;resizeLast=0;collapsible=1;marginBottom=0;whiteSpace=wrap;html=1;fillColor=#dae8fc;strokeColor=#6c8ebf;" parent="1" vertex="1">
                    <mxGeometry x="320" y="-540" width="180" height="180" as="geometry"/>
                </mxCell>
                <mxCell id="143" value="id&amp;nbsp;&lt;b style=&quot;border-color: var(--border-color);&quot;&gt;&lt;font style=&quot;border-color: var(--border-color);&quot; color=&quot;#66b2ff&quot;&gt;AUTOINKREMENT&lt;/font&gt;&lt;/b&gt;&amp;nbsp;&lt;b style=&quot;border-color: var(--border-color);&quot;&gt;&lt;font style=&quot;border-color: var(--border-color);&quot; color=&quot;#ff6666&quot;&gt;PK&lt;/font&gt;&lt;/b&gt;" style="text;align=left;verticalAlign=middle;spacingLeft=4;spacingRight=4;overflow=hidden;points=[[0,0.5],[1,0.5]];portConstraint=eastwest;rotatable=0;whiteSpace=wrap;html=1;" parent="142" vertex="1">
                    <mxGeometry y="30" width="180" height="30" as="geometry"/>
                </mxCell>
                <mxCell id="144" value="user_id &lt;b&gt;&lt;font color=&quot;#ff6666&quot;&gt;INT&lt;/font&gt;&lt;/b&gt; &lt;b&gt;&lt;font color=&quot;#66b2ff&quot;&gt;NOT NULL&lt;/font&gt;&lt;/b&gt;" style="text;strokeColor=#b85450;fillColor=#f8cecc;align=left;verticalAlign=middle;spacingLeft=4;spacingRight=4;overflow=hidden;points=[[0,0.5],[1,0.5]];portConstraint=eastwest;rotatable=0;whiteSpace=wrap;html=1;" parent="142" vertex="1">
                    <mxGeometry y="60" width="180" height="30" as="geometry"/>
                </mxCell>
                <mxCell id="145" value="schedule_id&amp;nbsp;&lt;b style=&quot;border-color: var(--border-color);&quot;&gt;&lt;font style=&quot;border-color: var(--border-color);&quot; color=&quot;#ff6666&quot;&gt;INT&lt;/font&gt;&lt;/b&gt;&amp;nbsp;&lt;b style=&quot;border-color: var(--border-color);&quot;&gt;&lt;font style=&quot;border-color: var(--border-color);&quot; color=&quot;#66b2ff&quot;&gt;NOT NULL&lt;/font&gt;&lt;/b&gt;" style="text;strokeColor=#b85450;fillColor=#f8cecc;align=left;verticalAlign=middle;spacingLeft=4;spacingRight=4;overflow=hidden;points=[[0,0.5],[1,0.5]];portConstraint=eastwest;rotatable=0;whiteSpace=wrap;html=1;" parent="142" vertex="1">
                    <mxGeometry y="90" width="180" height="30" as="geometry"/>
                </mxCell>
                <mxCell id="149" value="created_at&amp;nbsp;&lt;b style=&quot;border-color: var(--border-color);&quot;&gt;&lt;font style=&quot;border-color: var(--border-color);&quot; color=&quot;#ff6666&quot;&gt;TIMESTAMP&lt;/font&gt;&lt;/b&gt;" style="text;strokeColor=none;fillColor=none;align=left;verticalAlign=middle;spacingLeft=4;spacingRight=4;overflow=hidden;points=[[0,0.5],[1,0.5]];portConstraint=eastwest;rotatable=0;whiteSpace=wrap;html=1;" parent="142" vertex="1">
                    <mxGeometry y="120" width="180" height="30" as="geometry"/>
                </mxCell>
                <mxCell id="150" value="updated_at&amp;nbsp;&lt;b style=&quot;border-color: var(--border-color);&quot;&gt;&lt;font style=&quot;border-color: var(--border-color);&quot; color=&quot;#ff6666&quot;&gt;TIMESTAMP&lt;/font&gt;&lt;/b&gt;" style="text;strokeColor=none;fillColor=none;align=left;verticalAlign=middle;spacingLeft=4;spacingRight=4;overflow=hidden;points=[[0,0.5],[1,0.5]];portConstraint=eastwest;rotatable=0;whiteSpace=wrap;html=1;" parent="142" vertex="1">
                    <mxGeometry y="150" width="180" height="30" as="geometry"/>
                </mxCell>
                <mxCell id="152" style="edgeStyle=orthogonalEdgeStyle;html=1;exitX=1;exitY=0.5;exitDx=0;exitDy=0;entryX=0;entryY=0.5;entryDx=0;entryDy=0;strokeWidth=2;fontSize=14;fontColor=#66B2FF;fillColor=#f8cecc;strokeColor=#b85450;" parent="1" source="101" target="145" edge="1">
                    <mxGeometry relative="1" as="geometry"/>
                </mxCell>
                <mxCell id="153" value="OTM" style="edgeLabel;html=1;align=center;verticalAlign=middle;resizable=0;points=[];fontSize=14;fontColor=#FF6666;fontStyle=1" parent="152" vertex="1" connectable="0">
                    <mxGeometry x="0.1767" y="-2" relative="1" as="geometry">
                        <mxPoint as="offset"/>
                    </mxGeometry>
                </mxCell>
                <mxCell id="157" style="edgeStyle=orthogonalEdgeStyle;html=1;exitX=1;exitY=0.5;exitDx=0;exitDy=0;entryX=1;entryY=0.5;entryDx=0;entryDy=0;strokeWidth=2;fontSize=14;fontColor=#FF6666;fillColor=#f8cecc;strokeColor=#b85450;" parent="1" source="3" target="144" edge="1">
                    <mxGeometry relative="1" as="geometry"/>
                </mxCell>
                <mxCell id="158" value="OTM" style="edgeLabel;html=1;align=center;verticalAlign=middle;resizable=0;points=[];fontSize=14;fontColor=#FF6666;fontStyle=1" parent="157" vertex="1" connectable="0">
                    <mxGeometry x="0.7216" y="5" relative="1" as="geometry">
                        <mxPoint as="offset"/>
                    </mxGeometry>
                </mxCell>
            </root>
        </mxGraphModel>
    </diagram>
    <diagram id="qLKp_Ss2kHxhS2W2-tGf" name="API">
        <mxGraphModel dx="4023" dy="2609" grid="1" gridSize="10" guides="1" tooltips="1" connect="1" arrows="1" fold="1" page="1" pageScale="1" pageWidth="827" pageHeight="1169" math="0" shadow="0">
            <root>
                <mxCell id="0"/>
                <mxCell id="1" parent="0"/>
                <mxCell id="hbeQu_i2UAlogay5RclD-2" value="" style="ellipse;whiteSpace=wrap;html=1;aspect=fixed;fontSize=22;fontColor=#66B2FF;strokeColor=#66B2FF;strokeWidth=3;" vertex="1" parent="1">
                    <mxGeometry x="10" y="2500" width="80" height="80" as="geometry"/>
                </mxCell>
                <mxCell id="hbeQu_i2UAlogay5RclD-3" value="&lt;b style=&quot;border-color: var(--border-color);&quot;&gt;API&lt;/b&gt;" style="text;html=1;strokeColor=none;fillColor=none;align=center;verticalAlign=middle;whiteSpace=wrap;rounded=0;fontSize=22;fontColor=#66B2FF;" vertex="1" parent="1">
                    <mxGeometry x="20" y="2525" width="60" height="30" as="geometry"/>
                </mxCell>
                <mxCell id="hbeQu_i2UAlogay5RclD-4" value="" style="rounded=1;whiteSpace=wrap;html=1;strokeColor=#b85450;strokeWidth=3;fontSize=22;fillColor=#f8cecc;" vertex="1" parent="1">
                    <mxGeometry x="330" y="950" width="160" height="40" as="geometry"/>
                </mxCell>
                <mxCell id="hbeQu_i2UAlogay5RclD-5" value="&lt;b style=&quot;border-color: var(--border-color);&quot;&gt;&lt;font&gt;User&lt;/font&gt;&lt;/b&gt;" style="text;html=1;align=center;verticalAlign=middle;whiteSpace=wrap;rounded=0;fontSize=22;fontColor=#000000;" vertex="1" parent="1">
                    <mxGeometry x="380" y="955" width="60" height="30" as="geometry"/>
                </mxCell>
                <mxCell id="hbeQu_i2UAlogay5RclD-6" value="" style="rounded=1;whiteSpace=wrap;html=1;strokeColor=#b85450;strokeWidth=3;fontSize=22;fillColor=#f8cecc;" vertex="1" parent="1">
                    <mxGeometry x="180" y="2666.25" width="160" height="40" as="geometry"/>
                </mxCell>
                <mxCell id="hbeQu_i2UAlogay5RclD-7" value="&lt;b style=&quot;border-color: var(--border-color);&quot;&gt;Hall&lt;/b&gt;" style="text;html=1;align=center;verticalAlign=middle;whiteSpace=wrap;rounded=0;fontSize=22;fontColor=#000000;" vertex="1" parent="1">
                    <mxGeometry x="230" y="2671.25" width="60" height="30" as="geometry"/>
                </mxCell>
                <mxCell id="hbeQu_i2UAlogay5RclD-8" value="" style="rounded=1;whiteSpace=wrap;html=1;strokeColor=#b85450;strokeWidth=3;fontSize=22;fillColor=#f8cecc;" vertex="1" parent="1">
                    <mxGeometry x="2615" y="3217.5" width="160" height="40" as="geometry"/>
                </mxCell>
                <mxCell id="hbeQu_i2UAlogay5RclD-9" value="&lt;b style=&quot;border-color: var(--border-color);&quot;&gt;Type&lt;/b&gt;" style="text;html=1;align=center;verticalAlign=middle;whiteSpace=wrap;rounded=0;fontSize=22;fontColor=#000000;" vertex="1" parent="1">
                    <mxGeometry x="2615" y="3222.5" width="160" height="30" as="geometry"/>
                </mxCell>
                <mxCell id="hbeQu_i2UAlogay5RclD-10" value="" style="rounded=1;whiteSpace=wrap;html=1;strokeColor=#b85450;strokeWidth=3;fontSize=22;fillColor=#f8cecc;" vertex="1" parent="1">
                    <mxGeometry x="420" y="3232.5" width="160" height="40" as="geometry"/>
                </mxCell>
                <mxCell id="hbeQu_i2UAlogay5RclD-11" value="&lt;b style=&quot;border-color: var(--border-color);&quot;&gt;Workout&lt;/b&gt;" style="text;html=1;align=center;verticalAlign=middle;whiteSpace=wrap;rounded=0;fontSize=22;fontColor=#000000;" vertex="1" parent="1">
                    <mxGeometry x="470" y="3237.5" width="60" height="30" as="geometry"/>
                </mxCell>
                <mxCell id="hbeQu_i2UAlogay5RclD-12" value="" style="rounded=1;whiteSpace=wrap;html=1;strokeColor=#b85450;strokeWidth=3;fontSize=22;fillColor=#f8cecc;" vertex="1" parent="1">
                    <mxGeometry x="230" y="4185" width="160" height="40" as="geometry"/>
                </mxCell>
                <mxCell id="hbeQu_i2UAlogay5RclD-13" value="&lt;b style=&quot;border-color: var(--border-color);&quot;&gt;Payment&lt;/b&gt;" style="text;html=1;align=center;verticalAlign=middle;whiteSpace=wrap;rounded=0;fontSize=22;fontColor=#000000;" vertex="1" parent="1">
                    <mxGeometry x="280" y="4190" width="60" height="30" as="geometry"/>
                </mxCell>
                <mxCell id="hbeQu_i2UAlogay5RclD-14" value="" style="shape=curlyBracket;whiteSpace=wrap;html=1;rounded=1;labelPosition=left;verticalLabelPosition=middle;align=right;verticalAlign=middle;strokeColor=#66B2FF;strokeWidth=3;fontSize=22;fontColor=#66B2FF;" vertex="1" parent="1">
                    <mxGeometry x="120" y="520" width="60" height="4040" as="geometry"/>
                </mxCell>
                <mxCell id="hbeQu_i2UAlogay5RclD-15" value="" style="shape=curlyBracket;whiteSpace=wrap;html=1;rounded=1;labelPosition=left;verticalLabelPosition=middle;align=right;verticalAlign=middle;strokeColor=#b85450;strokeWidth=3;fontSize=22;fillColor=#f8cecc;" vertex="1" parent="1">
                    <mxGeometry x="540" y="680" width="40" height="580" as="geometry"/>
                </mxCell>
                <mxCell id="hbeQu_i2UAlogay5RclD-51" style="edgeStyle=none;html=1;exitX=0.5;exitY=0;exitDx=0;exitDy=0;entryX=-0.013;entryY=0.099;entryDx=0;entryDy=0;entryPerimeter=0;strokeWidth=3;fontSize=22;fontColor=#000000;fillColor=#f8cecc;strokeColor=#b85450;" edge="1" parent="1" source="hbeQu_i2UAlogay5RclD-18" target="hbeQu_i2UAlogay5RclD-47">
                    <mxGeometry relative="1" as="geometry"/>
                </mxCell>
                <mxCell id="hbeQu_i2UAlogay5RclD-18" value="Create" style="text;html=1;strokeColor=#b85450;fillColor=#f8cecc;align=center;verticalAlign=middle;whiteSpace=wrap;rounded=0;strokeWidth=3;fontSize=22;" vertex="1" parent="1">
                    <mxGeometry x="635" y="970" width="120" height="40" as="geometry"/>
                </mxCell>
                <mxCell id="hbeQu_i2UAlogay5RclD-19" value="Auth" style="text;html=1;strokeColor=#b85450;fillColor=#f8cecc;align=center;verticalAlign=middle;whiteSpace=wrap;rounded=0;strokeWidth=3;fontSize=22;" vertex="1" parent="1">
                    <mxGeometry x="1550" y="970" width="120" height="40" as="geometry"/>
                </mxCell>
                <mxCell id="hbeQu_i2UAlogay5RclD-20" value="Update" style="text;html=1;strokeColor=#b85450;fillColor=#f8cecc;align=center;verticalAlign=middle;whiteSpace=wrap;rounded=0;strokeWidth=3;fontSize=22;" vertex="1" parent="1">
                    <mxGeometry x="2010" y="970" width="120" height="40" as="geometry"/>
                </mxCell>
                <mxCell id="hbeQu_i2UAlogay5RclD-21" value="Logout" style="text;html=1;strokeColor=#b85450;fillColor=#f8cecc;align=center;verticalAlign=middle;whiteSpace=wrap;rounded=0;strokeWidth=3;fontSize=22;" vertex="1" parent="1">
                    <mxGeometry x="2460" y="970" width="120" height="40" as="geometry"/>
                </mxCell>
                <mxCell id="hbeQu_i2UAlogay5RclD-22" value="" style="shape=curlyBracket;whiteSpace=wrap;html=1;rounded=1;labelPosition=left;verticalLabelPosition=middle;align=right;verticalAlign=middle;strokeColor=#b85450;strokeWidth=3;fontSize=22;fillColor=#f8cecc;" vertex="1" parent="1">
                    <mxGeometry x="370" y="1610" width="40" height="2152.5" as="geometry"/>
                </mxCell>
                <mxCell id="hbeQu_i2UAlogay5RclD-24" value="Show" style="text;html=1;strokeColor=#b85450;fillColor=#f8cecc;align=center;verticalAlign=middle;whiteSpace=wrap;rounded=0;strokeWidth=3;fontSize=22;" vertex="1" parent="1">
                    <mxGeometry x="488" y="2186.25" width="120" height="40" as="geometry"/>
                </mxCell>
                <mxCell id="hbeQu_i2UAlogay5RclD-25" value="Choice" style="text;html=1;strokeColor=#b85450;fillColor=#f8cecc;align=center;verticalAlign=middle;whiteSpace=wrap;rounded=0;strokeWidth=3;fontSize=22;" vertex="1" parent="1">
                    <mxGeometry x="963" y="2186.25" width="120" height="40" as="geometry"/>
                </mxCell>
                <mxCell id="hbeQu_i2UAlogay5RclD-27" value="" style="shape=curlyBracket;whiteSpace=wrap;html=1;rounded=1;labelPosition=left;verticalLabelPosition=middle;align=right;verticalAlign=middle;strokeColor=#b85450;strokeWidth=3;fontSize=22;fillColor=#f8cecc;" vertex="1" parent="1">
                    <mxGeometry x="2805" y="2987.5" width="20" height="610" as="geometry"/>
                </mxCell>
                <mxCell id="hbeQu_i2UAlogay5RclD-28" value="All" style="text;html=1;strokeColor=#b85450;fillColor=#f8cecc;align=center;verticalAlign=middle;whiteSpace=wrap;rounded=0;strokeWidth=3;fontSize=22;" vertex="1" parent="1">
                    <mxGeometry x="2855" y="3012.5" width="120" height="40" as="geometry"/>
                </mxCell>
                <mxCell id="hbeQu_i2UAlogay5RclD-31" value="" style="shape=curlyBracket;whiteSpace=wrap;html=1;rounded=1;labelPosition=left;verticalLabelPosition=middle;align=right;verticalAlign=middle;strokeColor=#b85450;strokeWidth=3;fontSize=22;fillColor=#f8cecc;" vertex="1" parent="1">
                    <mxGeometry x="637.5" y="2842.5" width="52.5" height="820" as="geometry"/>
                </mxCell>
                <mxCell id="hbeQu_i2UAlogay5RclD-32" value="All" style="text;html=1;strokeColor=#b85450;fillColor=#f8cecc;align=center;verticalAlign=middle;whiteSpace=wrap;rounded=0;strokeWidth=3;fontSize=22;" vertex="1" parent="1">
                    <mxGeometry x="760" y="3222.5" width="120" height="40" as="geometry"/>
                </mxCell>
                <mxCell id="hbeQu_i2UAlogay5RclD-34" value="Record" style="text;html=1;strokeColor=#b85450;fillColor=#f8cecc;align=center;verticalAlign=middle;whiteSpace=wrap;rounded=0;strokeWidth=3;fontSize=22;" vertex="1" parent="1">
                    <mxGeometry x="1675" y="3222.5" width="120" height="40" as="geometry"/>
                </mxCell>
                <mxCell id="hbeQu_i2UAlogay5RclD-35" value="History Record" style="text;html=1;strokeColor=#b85450;fillColor=#f8cecc;align=center;verticalAlign=middle;whiteSpace=wrap;rounded=0;strokeWidth=3;fontSize=22;" vertex="1" parent="1">
                    <mxGeometry x="2145" y="3222.5" width="150" height="40" as="geometry"/>
                </mxCell>
                <mxCell id="hbeQu_i2UAlogay5RclD-38" value="" style="rounded=1;whiteSpace=wrap;html=1;strokeColor=#b85450;strokeWidth=3;fontSize=22;fillColor=#f8cecc;" vertex="1" parent="1">
                    <mxGeometry x="1443" y="2195" width="160" height="40" as="geometry"/>
                </mxCell>
                <mxCell id="hbeQu_i2UAlogay5RclD-39" value="&lt;b style=&quot;border-color: var(--border-color);&quot;&gt;Schedule&lt;/b&gt;" style="text;html=1;align=center;verticalAlign=middle;whiteSpace=wrap;rounded=0;fontSize=22;fontColor=#000000;" vertex="1" parent="1">
                    <mxGeometry x="1493" y="2200" width="60" height="30" as="geometry"/>
                </mxCell>
                <mxCell id="hbeQu_i2UAlogay5RclD-40" value="" style="shape=curlyBracket;whiteSpace=wrap;html=1;rounded=1;labelPosition=left;verticalLabelPosition=middle;align=right;verticalAlign=middle;strokeColor=#b85450;strokeWidth=3;fontSize=22;fillColor=#f8cecc;" vertex="1" parent="1">
                    <mxGeometry x="1638" y="1900" width="45" height="630" as="geometry"/>
                </mxCell>
                <mxCell id="hbeQu_i2UAlogay5RclD-41" value="All" style="text;html=1;strokeColor=#b85450;fillColor=#f8cecc;align=center;verticalAlign=middle;whiteSpace=wrap;rounded=0;strokeWidth=3;fontSize=22;" vertex="1" parent="1">
                    <mxGeometry x="1683" y="1922.5" width="120" height="40" as="geometry"/>
                </mxCell>
                <mxCell id="hbeQu_i2UAlogay5RclD-42" value="Show" style="text;html=1;strokeColor=#b85450;fillColor=#f8cecc;align=center;verticalAlign=middle;whiteSpace=wrap;rounded=0;strokeWidth=3;fontSize=22;" vertex="1" parent="1">
                    <mxGeometry x="1690.5" y="2450" width="120" height="40" as="geometry"/>
                </mxCell>
                <mxCell id="hbeQu_i2UAlogay5RclD-43" value="Show" style="text;html=1;strokeColor=#b85450;fillColor=#f8cecc;align=center;verticalAlign=middle;whiteSpace=wrap;rounded=0;strokeWidth=3;fontSize=22;" vertex="1" parent="1">
                    <mxGeometry x="2930" y="970" width="120" height="40" as="geometry"/>
                </mxCell>
                <mxCell id="hbeQu_i2UAlogay5RclD-44" value="" style="shape=curlyBracket;whiteSpace=wrap;html=1;rounded=1;labelPosition=left;verticalLabelPosition=middle;align=right;verticalAlign=middle;strokeColor=#b85450;strokeWidth=3;fontSize=22;fillColor=#f8cecc;" vertex="1" parent="1">
                    <mxGeometry x="435" y="3910" width="20" height="590" as="geometry"/>
                </mxCell>
                <mxCell id="hbeQu_i2UAlogay5RclD-45" value="Index" style="text;html=1;strokeColor=#b85450;fillColor=#f8cecc;align=center;verticalAlign=middle;whiteSpace=wrap;rounded=0;strokeWidth=3;fontSize=22;" vertex="1" parent="1">
                    <mxGeometry x="949" y="4185" width="120" height="40" as="geometry"/>
                </mxCell>
                <mxCell id="hbeQu_i2UAlogay5RclD-46" value="History" style="text;html=1;strokeColor=#b85450;fillColor=#f8cecc;align=center;verticalAlign=middle;whiteSpace=wrap;rounded=0;strokeWidth=3;fontSize=22;" vertex="1" parent="1">
                    <mxGeometry x="502" y="4185" width="120" height="40" as="geometry"/>
                </mxCell>
                <mxCell id="hbeQu_i2UAlogay5RclD-47" value="Request" style="swimlane;whiteSpace=wrap;html=1;strokeColor=#b85450;strokeWidth=3;fontSize=22;fillColor=#f8cecc;" vertex="1" parent="1">
                    <mxGeometry x="875" y="760" width="135" height="150" as="geometry"/>
                </mxCell>
                <mxCell id="gFweoGBymR-3OyI3qo6x-38" value="&lt;span style=&quot;font-size: 12px; text-align: left;&quot;&gt;&lt;b&gt;first_name&lt;/b&gt;&lt;/span&gt;" style="text;html=1;align=center;verticalAlign=middle;whiteSpace=wrap;rounded=0;strokeWidth=2;fontSize=22;" vertex="1" parent="hbeQu_i2UAlogay5RclD-47">
                    <mxGeometry x="2.5" y="25" width="130" height="30" as="geometry"/>
                </mxCell>
                <mxCell id="gFweoGBymR-3OyI3qo6x-39" value="&lt;span style=&quot;font-size: 12px; text-align: left;&quot;&gt;&lt;b&gt;last_name&lt;/b&gt;&lt;/span&gt;" style="text;html=1;align=center;verticalAlign=middle;whiteSpace=wrap;rounded=0;strokeWidth=2;fontSize=22;" vertex="1" parent="hbeQu_i2UAlogay5RclD-47">
                    <mxGeometry x="2.5" y="60" width="130" height="25" as="geometry"/>
                </mxCell>
                <mxCell id="gFweoGBymR-3OyI3qo6x-40" value="&lt;div style=&quot;text-align: left;&quot;&gt;&lt;span style=&quot;background-color: initial; font-size: 12px;&quot;&gt;&lt;b&gt;gender&lt;/b&gt;&lt;/span&gt;&lt;/div&gt;" style="text;html=1;align=center;verticalAlign=middle;whiteSpace=wrap;rounded=0;strokeWidth=2;fontSize=22;" vertex="1" parent="hbeQu_i2UAlogay5RclD-47">
                    <mxGeometry x="2.5" y="85" width="130" height="30" as="geometry"/>
                </mxCell>
                <mxCell id="gFweoGBymR-3OyI3qo6x-41" value="&lt;span style=&quot;font-size: 12px; text-align: left;&quot;&gt;&lt;b&gt;phone&lt;/b&gt;&lt;/span&gt;" style="text;html=1;align=center;verticalAlign=middle;whiteSpace=wrap;rounded=0;strokeWidth=2;fontSize=22;" vertex="1" parent="hbeQu_i2UAlogay5RclD-47">
                    <mxGeometry x="2.5" y="115" width="130" height="30" as="geometry"/>
                </mxCell>
                <mxCell id="hbeQu_i2UAlogay5RclD-52" style="edgeStyle=none;html=1;exitX=0;exitY=0.5;exitDx=0;exitDy=0;entryX=0.5;entryY=1;entryDx=0;entryDy=0;strokeWidth=3;fontSize=22;fontColor=#000000;fillColor=#f8cecc;strokeColor=#b85450;" edge="1" parent="1" source="hbeQu_i2UAlogay5RclD-48" target="hbeQu_i2UAlogay5RclD-18">
                    <mxGeometry relative="1" as="geometry"/>
                </mxCell>
                <mxCell id="hbeQu_i2UAlogay5RclD-48" value="Response" style="swimlane;whiteSpace=wrap;html=1;strokeColor=#b85450;strokeWidth=3;fontSize=22;fillColor=#f8cecc;" vertex="1" parent="1">
                    <mxGeometry x="870" y="1050" width="140" height="390" as="geometry"/>
                </mxCell>
                <mxCell id="gFweoGBymR-3OyI3qo6x-1" value="&lt;span style=&quot;font-size: 12px; text-align: left;&quot;&gt;&lt;b&gt;first_name&lt;/b&gt;&lt;/span&gt;" style="text;html=1;align=center;verticalAlign=middle;whiteSpace=wrap;rounded=0;strokeWidth=2;fontSize=22;" vertex="1" parent="hbeQu_i2UAlogay5RclD-48">
                    <mxGeometry x="5" y="60" width="130" height="30" as="geometry"/>
                </mxCell>
                <mxCell id="gFweoGBymR-3OyI3qo6x-2" value="&lt;span style=&quot;font-size: 12px; text-align: left;&quot;&gt;&lt;b&gt;last_name&lt;/b&gt;&lt;/span&gt;" style="text;html=1;align=center;verticalAlign=middle;whiteSpace=wrap;rounded=0;strokeWidth=2;fontSize=22;" vertex="1" parent="hbeQu_i2UAlogay5RclD-48">
                    <mxGeometry x="5" y="90" width="130" height="30" as="geometry"/>
                </mxCell>
                <mxCell id="gFweoGBymR-3OyI3qo6x-3" value="&lt;div style=&quot;text-align: left;&quot;&gt;&lt;span style=&quot;background-color: initial; font-size: 12px;&quot;&gt;&lt;b&gt;middle_name&lt;/b&gt;&lt;/span&gt;&lt;/div&gt;" style="text;html=1;align=center;verticalAlign=middle;whiteSpace=wrap;rounded=0;strokeWidth=2;fontSize=22;" vertex="1" parent="hbeQu_i2UAlogay5RclD-48">
                    <mxGeometry x="5" y="120" width="130" height="30" as="geometry"/>
                </mxCell>
                <mxCell id="gFweoGBymR-3OyI3qo6x-4" value="&lt;span style=&quot;font-size: 12px; text-align: left;&quot;&gt;&lt;b&gt;age&lt;/b&gt;&lt;/span&gt;" style="text;html=1;align=center;verticalAlign=middle;whiteSpace=wrap;rounded=0;strokeWidth=2;fontSize=22;" vertex="1" parent="hbeQu_i2UAlogay5RclD-48">
                    <mxGeometry x="5" y="150" width="130" height="30" as="geometry"/>
                </mxCell>
                <mxCell id="gFweoGBymR-3OyI3qo6x-5" value="&lt;div style=&quot;text-align: left;&quot;&gt;&lt;span style=&quot;background-color: initial; font-size: 12px;&quot;&gt;&lt;b&gt;role&lt;/b&gt;&lt;/span&gt;&lt;/div&gt;" style="text;html=1;align=center;verticalAlign=middle;whiteSpace=wrap;rounded=0;strokeWidth=2;fontSize=22;" vertex="1" parent="hbeQu_i2UAlogay5RclD-48">
                    <mxGeometry x="5" y="180" width="130" height="30" as="geometry"/>
                </mxCell>
                <mxCell id="gFweoGBymR-3OyI3qo6x-6" value="&lt;div style=&quot;text-align: left;&quot;&gt;&lt;span style=&quot;background-color: initial; font-size: 12px;&quot;&gt;&lt;b&gt;gender&lt;/b&gt;&lt;/span&gt;&lt;/div&gt;" style="text;html=1;align=center;verticalAlign=middle;whiteSpace=wrap;rounded=0;strokeWidth=2;fontSize=22;" vertex="1" parent="hbeQu_i2UAlogay5RclD-48">
                    <mxGeometry x="5" y="210" width="130" height="30" as="geometry"/>
                </mxCell>
                <mxCell id="gFweoGBymR-3OyI3qo6x-7" value="&lt;div style=&quot;text-align: left;&quot;&gt;&lt;span style=&quot;background-color: initial; font-size: 12px;&quot;&gt;&lt;b&gt;image&lt;/b&gt;&lt;/span&gt;&lt;/div&gt;" style="text;html=1;align=center;verticalAlign=middle;whiteSpace=wrap;rounded=0;strokeWidth=2;fontSize=22;" vertex="1" parent="hbeQu_i2UAlogay5RclD-48">
                    <mxGeometry x="5" y="240" width="130" height="30" as="geometry"/>
                </mxCell>
                <mxCell id="gFweoGBymR-3OyI3qo6x-8" value="&lt;div style=&quot;text-align: left;&quot;&gt;&lt;span style=&quot;background-color: initial; font-size: 12px;&quot;&gt;&lt;b&gt;weight&lt;/b&gt;&lt;/span&gt;&lt;/div&gt;" style="text;html=1;align=center;verticalAlign=middle;whiteSpace=wrap;rounded=0;strokeWidth=2;fontSize=22;" vertex="1" parent="hbeQu_i2UAlogay5RclD-48">
                    <mxGeometry x="5" y="270" width="130" height="30" as="geometry"/>
                </mxCell>
                <mxCell id="gFweoGBymR-3OyI3qo6x-9" value="&lt;div style=&quot;text-align: left;&quot;&gt;&lt;span style=&quot;background-color: initial; font-size: 12px;&quot;&gt;&lt;b&gt;height&lt;/b&gt;&lt;/span&gt;&lt;/div&gt;" style="text;html=1;align=center;verticalAlign=middle;whiteSpace=wrap;rounded=0;strokeWidth=2;fontSize=22;" vertex="1" parent="hbeQu_i2UAlogay5RclD-48">
                    <mxGeometry x="5" y="300" width="130" height="30" as="geometry"/>
                </mxCell>
                <mxCell id="gFweoGBymR-3OyI3qo6x-10" value="&lt;div style=&quot;text-align: left;&quot;&gt;&lt;span style=&quot;background-color: initial; font-size: 12px;&quot;&gt;&lt;b&gt;size_cloth&lt;/b&gt;&lt;/span&gt;&lt;/div&gt;" style="text;html=1;align=center;verticalAlign=middle;whiteSpace=wrap;rounded=0;strokeWidth=2;fontSize=22;" vertex="1" parent="hbeQu_i2UAlogay5RclD-48">
                    <mxGeometry x="5" y="330" width="130" height="30" as="geometry"/>
                </mxCell>
                <mxCell id="gFweoGBymR-3OyI3qo6x-11" value="&lt;div style=&quot;text-align: left;&quot;&gt;&lt;span style=&quot;background-color: initial; font-size: 12px;&quot;&gt;&lt;b&gt;phone&lt;/b&gt;&lt;/span&gt;&lt;/div&gt;" style="text;html=1;align=center;verticalAlign=middle;whiteSpace=wrap;rounded=0;strokeWidth=2;fontSize=22;" vertex="1" parent="hbeQu_i2UAlogay5RclD-48">
                    <mxGeometry x="5" y="360" width="130" height="30" as="geometry"/>
                </mxCell>
                <mxCell id="gFweoGBymR-3OyI3qo6x-43" value="&lt;span style=&quot;font-size: 12px; text-align: left;&quot;&gt;&lt;b&gt;id&lt;/b&gt;&lt;/span&gt;" style="text;html=1;align=center;verticalAlign=middle;whiteSpace=wrap;rounded=0;strokeWidth=2;fontSize=22;" vertex="1" parent="hbeQu_i2UAlogay5RclD-48">
                    <mxGeometry x="5" y="30" width="130" height="30" as="geometry"/>
                </mxCell>
                <mxCell id="hbeQu_i2UAlogay5RclD-53" value="" style="endArrow=classic;startArrow=classic;html=1;strokeWidth=3;fontSize=22;fontColor=#000000;entryX=0.5;entryY=1;entryDx=0;entryDy=0;exitX=0.5;exitY=0;exitDx=0;exitDy=0;fillColor=#f8cecc;strokeColor=#b85450;" edge="1" parent="1" source="hbeQu_i2UAlogay5RclD-48" target="hbeQu_i2UAlogay5RclD-47">
                    <mxGeometry width="50" height="50" relative="1" as="geometry">
                        <mxPoint x="850" y="1110" as="sourcePoint"/>
                        <mxPoint x="900" y="1060" as="targetPoint"/>
                        <Array as="points">
                            <mxPoint x="940" y="990"/>
                        </Array>
                    </mxGeometry>
                </mxCell>
                <mxCell id="hbeQu_i2UAlogay5RclD-59" style="edgeStyle=none;html=1;exitX=0.5;exitY=0;exitDx=0;exitDy=0;entryX=-0.013;entryY=0.099;entryDx=0;entryDy=0;entryPerimeter=0;strokeWidth=3;fontSize=22;fontColor=#000000;fillColor=#f8cecc;strokeColor=#b85450;" edge="1" parent="1" target="hbeQu_i2UAlogay5RclD-60">
                    <mxGeometry relative="1" as="geometry">
                        <mxPoint x="2992" y="970" as="sourcePoint"/>
                    </mxGeometry>
                </mxCell>
                <mxCell id="hbeQu_i2UAlogay5RclD-60" value="Request" style="swimlane;whiteSpace=wrap;html=1;strokeColor=#b85450;strokeWidth=3;fontSize=22;fillColor=#f8cecc;" vertex="1" parent="1">
                    <mxGeometry x="3172" y="760" width="135" height="60" as="geometry"/>
                </mxCell>
                <mxCell id="hbeQu_i2UAlogay5RclD-155" value="&lt;span style=&quot;font-size: 12px; text-align: left;&quot;&gt;&lt;b&gt;id&lt;/b&gt;&lt;/span&gt;" style="text;html=1;align=center;verticalAlign=middle;whiteSpace=wrap;rounded=0;strokeWidth=2;fontSize=22;" vertex="1" parent="hbeQu_i2UAlogay5RclD-60">
                    <mxGeometry x="2.5" y="20" width="130" height="30" as="geometry"/>
                </mxCell>
                <mxCell id="hbeQu_i2UAlogay5RclD-61" style="edgeStyle=none;html=1;exitX=0;exitY=0.5;exitDx=0;exitDy=0;entryX=0.5;entryY=1;entryDx=0;entryDy=0;strokeWidth=3;fontSize=22;fontColor=#000000;fillColor=#f8cecc;strokeColor=#b85450;" edge="1" parent="1" source="hbeQu_i2UAlogay5RclD-62">
                    <mxGeometry relative="1" as="geometry">
                        <mxPoint x="2992" y="1010" as="targetPoint"/>
                    </mxGeometry>
                </mxCell>
                <mxCell id="hbeQu_i2UAlogay5RclD-62" value="Response" style="swimlane;whiteSpace=wrap;html=1;strokeColor=#b85450;strokeWidth=3;fontSize=22;fillColor=#f8cecc;" vertex="1" parent="1">
                    <mxGeometry x="3170.5" y="1050" width="138" height="380" as="geometry"/>
                </mxCell>
                <mxCell id="e9iWSfptAVjDRQNuBnJU-2" value="&lt;span style=&quot;font-size: 12px; text-align: left;&quot;&gt;&lt;b&gt;first_name&lt;/b&gt;&lt;/span&gt;" style="text;html=1;align=center;verticalAlign=middle;whiteSpace=wrap;rounded=0;strokeWidth=2;fontSize=22;" vertex="1" parent="hbeQu_i2UAlogay5RclD-62">
                    <mxGeometry x="4" y="50" width="130" height="30" as="geometry"/>
                </mxCell>
                <mxCell id="e9iWSfptAVjDRQNuBnJU-3" value="&lt;span style=&quot;font-size: 12px; text-align: left;&quot;&gt;&lt;b&gt;last_name&lt;/b&gt;&lt;/span&gt;" style="text;html=1;align=center;verticalAlign=middle;whiteSpace=wrap;rounded=0;strokeWidth=2;fontSize=22;" vertex="1" parent="hbeQu_i2UAlogay5RclD-62">
                    <mxGeometry x="4" y="80" width="130" height="30" as="geometry"/>
                </mxCell>
                <mxCell id="e9iWSfptAVjDRQNuBnJU-4" value="&lt;div style=&quot;text-align: left;&quot;&gt;&lt;span style=&quot;background-color: initial; font-size: 12px;&quot;&gt;&lt;b&gt;middle_name&lt;/b&gt;&lt;/span&gt;&lt;/div&gt;" style="text;html=1;align=center;verticalAlign=middle;whiteSpace=wrap;rounded=0;strokeWidth=2;fontSize=22;" vertex="1" parent="hbeQu_i2UAlogay5RclD-62">
                    <mxGeometry x="4" y="110" width="130" height="30" as="geometry"/>
                </mxCell>
                <mxCell id="e9iWSfptAVjDRQNuBnJU-5" value="&lt;span style=&quot;font-size: 12px; text-align: left;&quot;&gt;&lt;b&gt;age&lt;/b&gt;&lt;/span&gt;" style="text;html=1;align=center;verticalAlign=middle;whiteSpace=wrap;rounded=0;strokeWidth=2;fontSize=22;" vertex="1" parent="hbeQu_i2UAlogay5RclD-62">
                    <mxGeometry x="4" y="140" width="130" height="30" as="geometry"/>
                </mxCell>
                <mxCell id="cyTkoXsRo6Ge16XqDbHS-1" value="&lt;div style=&quot;text-align: left;&quot;&gt;&lt;span style=&quot;background-color: initial; font-size: 12px;&quot;&gt;&lt;b&gt;role&lt;/b&gt;&lt;/span&gt;&lt;/div&gt;" style="text;html=1;align=center;verticalAlign=middle;whiteSpace=wrap;rounded=0;strokeWidth=2;fontSize=22;" vertex="1" parent="hbeQu_i2UAlogay5RclD-62">
                    <mxGeometry x="4" y="170" width="130" height="30" as="geometry"/>
                </mxCell>
                <mxCell id="5RR5hrKfIu_xkTQZy4b5-1" value="&lt;div style=&quot;text-align: left;&quot;&gt;&lt;span style=&quot;background-color: initial; font-size: 12px;&quot;&gt;&lt;b&gt;gender&lt;/b&gt;&lt;/span&gt;&lt;/div&gt;" style="text;html=1;align=center;verticalAlign=middle;whiteSpace=wrap;rounded=0;strokeWidth=2;fontSize=22;" vertex="1" parent="hbeQu_i2UAlogay5RclD-62">
                    <mxGeometry x="4" y="200" width="130" height="30" as="geometry"/>
                </mxCell>
                <mxCell id="5RR5hrKfIu_xkTQZy4b5-2" value="&lt;div style=&quot;text-align: left;&quot;&gt;&lt;span style=&quot;background-color: initial; font-size: 12px;&quot;&gt;&lt;b&gt;image&lt;/b&gt;&lt;/span&gt;&lt;/div&gt;" style="text;html=1;align=center;verticalAlign=middle;whiteSpace=wrap;rounded=0;strokeWidth=2;fontSize=22;" vertex="1" parent="hbeQu_i2UAlogay5RclD-62">
                    <mxGeometry x="4" y="230" width="130" height="30" as="geometry"/>
                </mxCell>
                <mxCell id="5RR5hrKfIu_xkTQZy4b5-3" value="&lt;div style=&quot;text-align: left;&quot;&gt;&lt;span style=&quot;background-color: initial; font-size: 12px;&quot;&gt;&lt;b&gt;weight&lt;/b&gt;&lt;/span&gt;&lt;/div&gt;" style="text;html=1;align=center;verticalAlign=middle;whiteSpace=wrap;rounded=0;strokeWidth=2;fontSize=22;" vertex="1" parent="hbeQu_i2UAlogay5RclD-62">
                    <mxGeometry x="4" y="260" width="130" height="30" as="geometry"/>
                </mxCell>
                <mxCell id="CnQ51ZtZPcLejPBXYhWI-1" value="&lt;div style=&quot;text-align: left;&quot;&gt;&lt;span style=&quot;background-color: initial; font-size: 12px;&quot;&gt;&lt;b&gt;height&lt;/b&gt;&lt;/span&gt;&lt;/div&gt;" style="text;html=1;align=center;verticalAlign=middle;whiteSpace=wrap;rounded=0;strokeWidth=2;fontSize=22;" vertex="1" parent="hbeQu_i2UAlogay5RclD-62">
                    <mxGeometry x="4" y="290" width="130" height="30" as="geometry"/>
                </mxCell>
                <mxCell id="CnQ51ZtZPcLejPBXYhWI-2" value="&lt;div style=&quot;text-align: left;&quot;&gt;&lt;span style=&quot;background-color: initial; font-size: 12px;&quot;&gt;&lt;b&gt;size_cloth&lt;/b&gt;&lt;/span&gt;&lt;/div&gt;" style="text;html=1;align=center;verticalAlign=middle;whiteSpace=wrap;rounded=0;strokeWidth=2;fontSize=22;" vertex="1" parent="hbeQu_i2UAlogay5RclD-62">
                    <mxGeometry x="4" y="320" width="130" height="30" as="geometry"/>
                </mxCell>
                <mxCell id="Yduq3sGI7Cxti5ng2xfI-1" value="&lt;div style=&quot;text-align: left;&quot;&gt;&lt;span style=&quot;background-color: initial; font-size: 12px;&quot;&gt;&lt;b&gt;phone&lt;/b&gt;&lt;/span&gt;&lt;/div&gt;" style="text;html=1;align=center;verticalAlign=middle;whiteSpace=wrap;rounded=0;strokeWidth=2;fontSize=22;" vertex="1" parent="hbeQu_i2UAlogay5RclD-62">
                    <mxGeometry x="4" y="350" width="130" height="30" as="geometry"/>
                </mxCell>
                <mxCell id="gFweoGBymR-3OyI3qo6x-42" value="&lt;span style=&quot;font-size: 12px; text-align: left;&quot;&gt;&lt;b&gt;id&lt;/b&gt;&lt;/span&gt;" style="text;html=1;align=center;verticalAlign=middle;whiteSpace=wrap;rounded=0;strokeWidth=2;fontSize=22;" vertex="1" parent="hbeQu_i2UAlogay5RclD-62">
                    <mxGeometry x="4" y="20" width="130" height="30" as="geometry"/>
                </mxCell>
                <mxCell id="hbeQu_i2UAlogay5RclD-63" value="" style="endArrow=classic;startArrow=classic;html=1;strokeWidth=3;fontSize=22;fontColor=#000000;entryX=0.5;entryY=1;entryDx=0;entryDy=0;exitX=0.5;exitY=0;exitDx=0;exitDy=0;fillColor=#f8cecc;strokeColor=#b85450;" edge="1" parent="1" source="hbeQu_i2UAlogay5RclD-62" target="hbeQu_i2UAlogay5RclD-60">
                    <mxGeometry width="50" height="50" relative="1" as="geometry">
                        <mxPoint x="3147" y="1110" as="sourcePoint"/>
                        <mxPoint x="3197" y="1060" as="targetPoint"/>
                        <Array as="points"/>
                    </mxGeometry>
                </mxCell>
                <mxCell id="hbeQu_i2UAlogay5RclD-72" style="edgeStyle=none;html=1;exitX=0.5;exitY=0;exitDx=0;exitDy=0;entryX=-0.013;entryY=0.099;entryDx=0;entryDy=0;entryPerimeter=0;strokeWidth=3;fontSize=22;fontColor=#000000;fillColor=#f8cecc;strokeColor=#b85450;" edge="1" parent="1" target="hbeQu_i2UAlogay5RclD-73">
                    <mxGeometry relative="1" as="geometry">
                        <mxPoint x="1000.25" y="4185" as="sourcePoint"/>
                    </mxGeometry>
                </mxCell>
                <mxCell id="hbeQu_i2UAlogay5RclD-73" value="Request" style="swimlane;whiteSpace=wrap;html=1;strokeColor=#b85450;strokeWidth=3;fontSize=22;fillColor=#f8cecc;" vertex="1" parent="1">
                    <mxGeometry x="1180.25" y="3975" width="135" height="170" as="geometry"/>
                </mxCell>
                <mxCell id="hbeQu_i2UAlogay5RclD-74" style="edgeStyle=none;html=1;exitX=0;exitY=0.5;exitDx=0;exitDy=0;entryX=0.5;entryY=1;entryDx=0;entryDy=0;strokeWidth=3;fontSize=22;fontColor=#000000;fillColor=#f8cecc;strokeColor=#b85450;" edge="1" parent="1" source="hbeQu_i2UAlogay5RclD-75">
                    <mxGeometry relative="1" as="geometry">
                        <mxPoint x="1000.25" y="4225" as="targetPoint"/>
                    </mxGeometry>
                </mxCell>
                <mxCell id="hbeQu_i2UAlogay5RclD-75" value="Response" style="swimlane;whiteSpace=wrap;html=1;strokeColor=#b85450;strokeWidth=3;fontSize=22;fillColor=#f8cecc;" vertex="1" parent="1">
                    <mxGeometry x="1175.25" y="4265" width="140" height="170" as="geometry"/>
                </mxCell>
                <mxCell id="hbeQu_i2UAlogay5RclD-76" value="" style="endArrow=classic;startArrow=classic;html=1;strokeWidth=3;fontSize=22;fontColor=#000000;entryX=0.5;entryY=1;entryDx=0;entryDy=0;exitX=0.5;exitY=0;exitDx=0;exitDy=0;fillColor=#f8cecc;strokeColor=#b85450;" edge="1" parent="1" source="hbeQu_i2UAlogay5RclD-75" target="hbeQu_i2UAlogay5RclD-73">
                    <mxGeometry width="50" height="50" relative="1" as="geometry">
                        <mxPoint x="1155.25" y="4325" as="sourcePoint"/>
                        <mxPoint x="1205.25" y="4275" as="targetPoint"/>
                        <Array as="points">
                            <mxPoint x="1245.25" y="4205"/>
                        </Array>
                    </mxGeometry>
                </mxCell>
                <mxCell id="hbeQu_i2UAlogay5RclD-77" style="edgeStyle=none;html=1;exitX=0.5;exitY=0;exitDx=0;exitDy=0;entryX=-0.013;entryY=0.099;entryDx=0;entryDy=0;entryPerimeter=0;strokeWidth=3;fontSize=22;fontColor=#000000;fillColor=#f8cecc;strokeColor=#b85450;" edge="1" parent="1" target="hbeQu_i2UAlogay5RclD-78">
                    <mxGeometry relative="1" as="geometry">
                        <mxPoint x="1615" y="970" as="sourcePoint"/>
                    </mxGeometry>
                </mxCell>
                <mxCell id="hbeQu_i2UAlogay5RclD-78" value="Request" style="swimlane;whiteSpace=wrap;html=1;strokeColor=#b85450;strokeWidth=3;fontSize=22;fillColor=#f8cecc;" vertex="1" parent="1">
                    <mxGeometry x="1795" y="760" width="135" height="90" as="geometry"/>
                </mxCell>
                <mxCell id="gFweoGBymR-3OyI3qo6x-36" value="&lt;div style=&quot;text-align: left;&quot;&gt;&lt;span style=&quot;background-color: initial; font-size: 12px;&quot;&gt;&lt;b&gt;phone&lt;/b&gt;&lt;/span&gt;&lt;/div&gt;" style="text;html=1;align=center;verticalAlign=middle;whiteSpace=wrap;rounded=0;strokeWidth=2;fontSize=22;" vertex="1" parent="hbeQu_i2UAlogay5RclD-78">
                    <mxGeometry x="2.5" y="30" width="130" height="30" as="geometry"/>
                </mxCell>
                <mxCell id="gFweoGBymR-3OyI3qo6x-37" value="&lt;div style=&quot;text-align: left;&quot;&gt;&lt;span style=&quot;background-color: initial; font-size: 12px;&quot;&gt;&lt;b&gt;code&lt;/b&gt;&lt;/span&gt;&lt;/div&gt;" style="text;html=1;align=center;verticalAlign=middle;whiteSpace=wrap;rounded=0;strokeWidth=2;fontSize=22;" vertex="1" parent="hbeQu_i2UAlogay5RclD-78">
                    <mxGeometry x="2.5" y="60" width="130" height="30" as="geometry"/>
                </mxCell>
                <mxCell id="hbeQu_i2UAlogay5RclD-79" style="edgeStyle=none;html=1;exitX=0;exitY=0.5;exitDx=0;exitDy=0;entryX=0.5;entryY=1;entryDx=0;entryDy=0;strokeWidth=3;fontSize=22;fontColor=#000000;fillColor=#f8cecc;strokeColor=#b85450;" edge="1" parent="1" source="hbeQu_i2UAlogay5RclD-80">
                    <mxGeometry relative="1" as="geometry">
                        <mxPoint x="1615" y="1010" as="targetPoint"/>
                    </mxGeometry>
                </mxCell>
                <mxCell id="hbeQu_i2UAlogay5RclD-80" value="Response" style="swimlane;whiteSpace=wrap;html=1;strokeColor=#b85450;strokeWidth=3;fontSize=22;fillColor=#f8cecc;" vertex="1" parent="1">
                    <mxGeometry x="1790" y="1050" width="140" height="430" as="geometry"/>
                </mxCell>
                <mxCell id="gFweoGBymR-3OyI3qo6x-12" value="&lt;span style=&quot;font-size: 12px; text-align: left;&quot;&gt;&lt;b&gt;first_name&lt;/b&gt;&lt;/span&gt;" style="text;html=1;align=center;verticalAlign=middle;whiteSpace=wrap;rounded=0;strokeWidth=2;fontSize=22;" vertex="1" parent="hbeQu_i2UAlogay5RclD-80">
                    <mxGeometry x="5" y="60" width="130" height="30" as="geometry"/>
                </mxCell>
                <mxCell id="gFweoGBymR-3OyI3qo6x-13" value="&lt;span style=&quot;font-size: 12px; text-align: left;&quot;&gt;&lt;b&gt;last_name&lt;/b&gt;&lt;/span&gt;" style="text;html=1;align=center;verticalAlign=middle;whiteSpace=wrap;rounded=0;strokeWidth=2;fontSize=22;" vertex="1" parent="hbeQu_i2UAlogay5RclD-80">
                    <mxGeometry x="5" y="90" width="130" height="30" as="geometry"/>
                </mxCell>
                <mxCell id="gFweoGBymR-3OyI3qo6x-14" value="&lt;div style=&quot;text-align: left;&quot;&gt;&lt;span style=&quot;background-color: initial; font-size: 12px;&quot;&gt;&lt;b&gt;middle_name&lt;/b&gt;&lt;/span&gt;&lt;/div&gt;" style="text;html=1;align=center;verticalAlign=middle;whiteSpace=wrap;rounded=0;strokeWidth=2;fontSize=22;" vertex="1" parent="hbeQu_i2UAlogay5RclD-80">
                    <mxGeometry x="5" y="120" width="130" height="30" as="geometry"/>
                </mxCell>
                <mxCell id="gFweoGBymR-3OyI3qo6x-15" value="&lt;span style=&quot;font-size: 12px; text-align: left;&quot;&gt;&lt;b&gt;age&lt;/b&gt;&lt;/span&gt;" style="text;html=1;align=center;verticalAlign=middle;whiteSpace=wrap;rounded=0;strokeWidth=2;fontSize=22;" vertex="1" parent="hbeQu_i2UAlogay5RclD-80">
                    <mxGeometry x="5" y="150" width="130" height="30" as="geometry"/>
                </mxCell>
                <mxCell id="gFweoGBymR-3OyI3qo6x-16" value="&lt;div style=&quot;text-align: left;&quot;&gt;&lt;span style=&quot;background-color: initial; font-size: 12px;&quot;&gt;&lt;b&gt;role&lt;/b&gt;&lt;/span&gt;&lt;/div&gt;" style="text;html=1;align=center;verticalAlign=middle;whiteSpace=wrap;rounded=0;strokeWidth=2;fontSize=22;" vertex="1" parent="hbeQu_i2UAlogay5RclD-80">
                    <mxGeometry x="5" y="180" width="130" height="30" as="geometry"/>
                </mxCell>
                <mxCell id="gFweoGBymR-3OyI3qo6x-17" value="&lt;div style=&quot;text-align: left;&quot;&gt;&lt;span style=&quot;background-color: initial; font-size: 12px;&quot;&gt;&lt;b&gt;gender&lt;/b&gt;&lt;/span&gt;&lt;/div&gt;" style="text;html=1;align=center;verticalAlign=middle;whiteSpace=wrap;rounded=0;strokeWidth=2;fontSize=22;" vertex="1" parent="hbeQu_i2UAlogay5RclD-80">
                    <mxGeometry x="5" y="210" width="130" height="30" as="geometry"/>
                </mxCell>
                <mxCell id="gFweoGBymR-3OyI3qo6x-18" value="&lt;div style=&quot;text-align: left;&quot;&gt;&lt;span style=&quot;background-color: initial; font-size: 12px;&quot;&gt;&lt;b&gt;image&lt;/b&gt;&lt;/span&gt;&lt;/div&gt;" style="text;html=1;align=center;verticalAlign=middle;whiteSpace=wrap;rounded=0;strokeWidth=2;fontSize=22;" vertex="1" parent="hbeQu_i2UAlogay5RclD-80">
                    <mxGeometry x="5" y="240" width="130" height="30" as="geometry"/>
                </mxCell>
                <mxCell id="gFweoGBymR-3OyI3qo6x-19" value="&lt;div style=&quot;text-align: left;&quot;&gt;&lt;span style=&quot;background-color: initial; font-size: 12px;&quot;&gt;&lt;b&gt;weight&lt;/b&gt;&lt;/span&gt;&lt;/div&gt;" style="text;html=1;align=center;verticalAlign=middle;whiteSpace=wrap;rounded=0;strokeWidth=2;fontSize=22;" vertex="1" parent="hbeQu_i2UAlogay5RclD-80">
                    <mxGeometry x="5" y="270" width="130" height="30" as="geometry"/>
                </mxCell>
                <mxCell id="gFweoGBymR-3OyI3qo6x-20" value="&lt;div style=&quot;text-align: left;&quot;&gt;&lt;span style=&quot;background-color: initial; font-size: 12px;&quot;&gt;&lt;b&gt;height&lt;/b&gt;&lt;/span&gt;&lt;/div&gt;" style="text;html=1;align=center;verticalAlign=middle;whiteSpace=wrap;rounded=0;strokeWidth=2;fontSize=22;" vertex="1" parent="hbeQu_i2UAlogay5RclD-80">
                    <mxGeometry x="5" y="300" width="130" height="30" as="geometry"/>
                </mxCell>
                <mxCell id="gFweoGBymR-3OyI3qo6x-21" value="&lt;div style=&quot;text-align: left;&quot;&gt;&lt;span style=&quot;background-color: initial; font-size: 12px;&quot;&gt;&lt;b&gt;size_cloth&lt;/b&gt;&lt;/span&gt;&lt;/div&gt;" style="text;html=1;align=center;verticalAlign=middle;whiteSpace=wrap;rounded=0;strokeWidth=2;fontSize=22;" vertex="1" parent="hbeQu_i2UAlogay5RclD-80">
                    <mxGeometry x="5" y="330" width="130" height="30" as="geometry"/>
                </mxCell>
                <mxCell id="gFweoGBymR-3OyI3qo6x-22" value="&lt;div style=&quot;text-align: left;&quot;&gt;&lt;span style=&quot;background-color: initial; font-size: 12px;&quot;&gt;&lt;b&gt;phone&lt;/b&gt;&lt;/span&gt;&lt;/div&gt;" style="text;html=1;align=center;verticalAlign=middle;whiteSpace=wrap;rounded=0;strokeWidth=2;fontSize=22;" vertex="1" parent="hbeQu_i2UAlogay5RclD-80">
                    <mxGeometry x="5" y="360" width="130" height="30" as="geometry"/>
                </mxCell>
                <mxCell id="gFweoGBymR-3OyI3qo6x-23" value="&lt;div style=&quot;text-align: left;&quot;&gt;&lt;span style=&quot;background-color: initial; font-size: 12px;&quot;&gt;&lt;b&gt;access_key&lt;/b&gt;&lt;/span&gt;&lt;/div&gt;" style="text;html=1;align=center;verticalAlign=middle;whiteSpace=wrap;rounded=0;strokeWidth=2;fontSize=22;" vertex="1" parent="hbeQu_i2UAlogay5RclD-80">
                    <mxGeometry x="5" y="390" width="130" height="30" as="geometry"/>
                </mxCell>
                <mxCell id="gFweoGBymR-3OyI3qo6x-44" value="&lt;span style=&quot;font-size: 12px; text-align: left;&quot;&gt;&lt;b&gt;id&lt;/b&gt;&lt;/span&gt;" style="text;html=1;align=center;verticalAlign=middle;whiteSpace=wrap;rounded=0;strokeWidth=2;fontSize=22;" vertex="1" parent="hbeQu_i2UAlogay5RclD-80">
                    <mxGeometry x="5" y="30" width="130" height="30" as="geometry"/>
                </mxCell>
                <mxCell id="hbeQu_i2UAlogay5RclD-81" value="" style="endArrow=classic;startArrow=classic;html=1;strokeWidth=3;fontSize=22;fontColor=#000000;entryX=0.5;entryY=1;entryDx=0;entryDy=0;exitX=0.5;exitY=0;exitDx=0;exitDy=0;fillColor=#f8cecc;strokeColor=#b85450;" edge="1" parent="1" source="hbeQu_i2UAlogay5RclD-80" target="hbeQu_i2UAlogay5RclD-78">
                    <mxGeometry width="50" height="50" relative="1" as="geometry">
                        <mxPoint x="1770" y="1110" as="sourcePoint"/>
                        <mxPoint x="1820" y="1060" as="targetPoint"/>
                        <Array as="points">
                            <mxPoint x="1860" y="990"/>
                        </Array>
                    </mxGeometry>
                </mxCell>
                <mxCell id="hbeQu_i2UAlogay5RclD-82" style="edgeStyle=none;html=1;exitX=0.5;exitY=0;exitDx=0;exitDy=0;entryX=-0.013;entryY=0.099;entryDx=0;entryDy=0;entryPerimeter=0;strokeWidth=3;fontSize=22;fontColor=#000000;fillColor=#f8cecc;strokeColor=#b85450;" edge="1" parent="1">
                    <mxGeometry relative="1" as="geometry">
                        <mxPoint x="2070" y="970" as="sourcePoint"/>
                        <mxPoint x="2248.245" y="776.8299999999999" as="targetPoint"/>
                    </mxGeometry>
                </mxCell>
                <mxCell id="hbeQu_i2UAlogay5RclD-84" style="edgeStyle=none;html=1;exitX=0;exitY=0.5;exitDx=0;exitDy=0;entryX=0.5;entryY=1;entryDx=0;entryDy=0;strokeWidth=3;fontSize=22;fontColor=#000000;fillColor=#f8cecc;strokeColor=#b85450;" edge="1" parent="1">
                    <mxGeometry relative="1" as="geometry">
                        <mxPoint x="2070" y="1010" as="targetPoint"/>
                        <mxPoint x="2244.9999999999995" y="1130" as="sourcePoint"/>
                    </mxGeometry>
                </mxCell>
                <mxCell id="hbeQu_i2UAlogay5RclD-86" value="" style="endArrow=classic;startArrow=classic;html=1;strokeWidth=3;fontSize=22;fontColor=#000000;entryX=0.5;entryY=1;entryDx=0;entryDy=0;exitX=0.5;exitY=0;exitDx=0;exitDy=0;fillColor=#f8cecc;strokeColor=#b85450;" edge="1" parent="1">
                    <mxGeometry width="50" height="50" relative="1" as="geometry">
                        <mxPoint x="2314.9999999999995" y="1050" as="sourcePoint"/>
                        <mxPoint x="2317.4999999999995" y="930" as="targetPoint"/>
                        <Array as="points">
                            <mxPoint x="2315" y="990"/>
                        </Array>
                    </mxGeometry>
                </mxCell>
                <mxCell id="hbeQu_i2UAlogay5RclD-92" style="edgeStyle=none;html=1;exitX=0.5;exitY=0;exitDx=0;exitDy=0;entryX=-0.013;entryY=0.099;entryDx=0;entryDy=0;entryPerimeter=0;strokeWidth=3;fontSize=22;fontColor=#000000;fillColor=#f8cecc;strokeColor=#b85450;" edge="1" parent="1" target="hbeQu_i2UAlogay5RclD-93">
                    <mxGeometry relative="1" as="geometry">
                        <mxPoint x="550" y="2186.25" as="sourcePoint"/>
                    </mxGeometry>
                </mxCell>
                <mxCell id="hbeQu_i2UAlogay5RclD-93" value="Request" style="swimlane;whiteSpace=wrap;html=1;strokeColor=#b85450;strokeWidth=3;fontSize=22;fillColor=#f8cecc;" vertex="1" parent="1">
                    <mxGeometry x="730" y="1976.25" width="135" height="170" as="geometry"/>
                </mxCell>
                <mxCell id="hbeQu_i2UAlogay5RclD-94" style="edgeStyle=none;html=1;exitX=0;exitY=0.5;exitDx=0;exitDy=0;entryX=0.5;entryY=1;entryDx=0;entryDy=0;strokeWidth=3;fontSize=22;fontColor=#000000;fillColor=#f8cecc;strokeColor=#b85450;" edge="1" parent="1" source="hbeQu_i2UAlogay5RclD-95">
                    <mxGeometry relative="1" as="geometry">
                        <mxPoint x="550" y="2226.25" as="targetPoint"/>
                    </mxGeometry>
                </mxCell>
                <mxCell id="hbeQu_i2UAlogay5RclD-95" value="Response" style="swimlane;whiteSpace=wrap;html=1;strokeColor=#b85450;strokeWidth=3;fontSize=22;fillColor=#f8cecc;" vertex="1" parent="1">
                    <mxGeometry x="725" y="2266.25" width="140" height="170" as="geometry"/>
                </mxCell>
                <mxCell id="hbeQu_i2UAlogay5RclD-96" value="" style="endArrow=classic;startArrow=classic;html=1;strokeWidth=3;fontSize=22;fontColor=#000000;entryX=0.5;entryY=1;entryDx=0;entryDy=0;exitX=0.5;exitY=0;exitDx=0;exitDy=0;fillColor=#f8cecc;strokeColor=#b85450;" edge="1" parent="1" source="hbeQu_i2UAlogay5RclD-95" target="hbeQu_i2UAlogay5RclD-93">
                    <mxGeometry width="50" height="50" relative="1" as="geometry">
                        <mxPoint x="705" y="2326.25" as="sourcePoint"/>
                        <mxPoint x="755" y="2276.25" as="targetPoint"/>
                        <Array as="points">
                            <mxPoint x="795" y="2206.25"/>
                        </Array>
                    </mxGeometry>
                </mxCell>
                <mxCell id="hbeQu_i2UAlogay5RclD-97" style="edgeStyle=none;html=1;exitX=0.5;exitY=0;exitDx=0;exitDy=0;entryX=-0.013;entryY=0.099;entryDx=0;entryDy=0;entryPerimeter=0;strokeWidth=3;fontSize=22;fontColor=#000000;fillColor=#f8cecc;strokeColor=#b85450;" edge="1" parent="1" target="hbeQu_i2UAlogay5RclD-98">
                    <mxGeometry relative="1" as="geometry">
                        <mxPoint x="1023" y="2186.25" as="sourcePoint"/>
                    </mxGeometry>
                </mxCell>
                <mxCell id="hbeQu_i2UAlogay5RclD-98" value="Request" style="swimlane;whiteSpace=wrap;html=1;strokeColor=#b85450;strokeWidth=3;fontSize=22;fillColor=#f8cecc;" vertex="1" parent="1">
                    <mxGeometry x="1203" y="1976.25" width="135" height="170" as="geometry"/>
                </mxCell>
                <mxCell id="hbeQu_i2UAlogay5RclD-99" style="edgeStyle=none;html=1;exitX=0;exitY=0.5;exitDx=0;exitDy=0;entryX=0.5;entryY=1;entryDx=0;entryDy=0;strokeWidth=3;fontSize=22;fontColor=#000000;fillColor=#f8cecc;strokeColor=#b85450;" edge="1" parent="1" source="hbeQu_i2UAlogay5RclD-100">
                    <mxGeometry relative="1" as="geometry">
                        <mxPoint x="1023" y="2226.25" as="targetPoint"/>
                    </mxGeometry>
                </mxCell>
                <mxCell id="hbeQu_i2UAlogay5RclD-100" value="Response" style="swimlane;whiteSpace=wrap;html=1;strokeColor=#b85450;strokeWidth=3;fontSize=22;fillColor=#f8cecc;" vertex="1" parent="1">
                    <mxGeometry x="1198" y="2266.25" width="140" height="170" as="geometry"/>
                </mxCell>
                <mxCell id="hbeQu_i2UAlogay5RclD-101" value="" style="endArrow=classic;startArrow=classic;html=1;strokeWidth=3;fontSize=22;fontColor=#000000;entryX=0.5;entryY=1;entryDx=0;entryDy=0;exitX=0.5;exitY=0;exitDx=0;exitDy=0;fillColor=#f8cecc;strokeColor=#b85450;" edge="1" parent="1" source="hbeQu_i2UAlogay5RclD-100" target="hbeQu_i2UAlogay5RclD-98">
                    <mxGeometry width="50" height="50" relative="1" as="geometry">
                        <mxPoint x="1178" y="2326.25" as="sourcePoint"/>
                        <mxPoint x="1228" y="2276.25" as="targetPoint"/>
                        <Array as="points">
                            <mxPoint x="1268" y="2206.25"/>
                        </Array>
                    </mxGeometry>
                </mxCell>
                <mxCell id="hbeQu_i2UAlogay5RclD-102" style="edgeStyle=none;html=1;exitX=0.5;exitY=0;exitDx=0;exitDy=0;entryX=-0.013;entryY=0.099;entryDx=0;entryDy=0;entryPerimeter=0;strokeWidth=3;fontSize=22;fontColor=#000000;fillColor=#f8cecc;strokeColor=#b85450;" edge="1" parent="1" target="hbeQu_i2UAlogay5RclD-103">
                    <mxGeometry relative="1" as="geometry">
                        <mxPoint x="1745.5" y="1922.5" as="sourcePoint"/>
                    </mxGeometry>
                </mxCell>
                <mxCell id="hbeQu_i2UAlogay5RclD-103" value="Request" style="swimlane;whiteSpace=wrap;html=1;strokeColor=#b85450;strokeWidth=3;fontSize=22;fillColor=#f8cecc;" vertex="1" parent="1">
                    <mxGeometry x="1925.5" y="1712.5" width="135" height="170" as="geometry"/>
                </mxCell>
                <mxCell id="hbeQu_i2UAlogay5RclD-104" style="edgeStyle=none;html=1;exitX=0;exitY=0.5;exitDx=0;exitDy=0;entryX=0.5;entryY=1;entryDx=0;entryDy=0;strokeWidth=3;fontSize=22;fontColor=#000000;fillColor=#f8cecc;strokeColor=#b85450;" edge="1" parent="1" source="hbeQu_i2UAlogay5RclD-105">
                    <mxGeometry relative="1" as="geometry">
                        <mxPoint x="1745.5" y="1962.5" as="targetPoint"/>
                    </mxGeometry>
                </mxCell>
                <mxCell id="hbeQu_i2UAlogay5RclD-105" value="Response" style="swimlane;whiteSpace=wrap;html=1;strokeColor=#b85450;strokeWidth=3;fontSize=22;fillColor=#f8cecc;" vertex="1" parent="1">
                    <mxGeometry x="1920.5" y="2002.5" width="140" height="170" as="geometry"/>
                </mxCell>
                <mxCell id="hbeQu_i2UAlogay5RclD-106" value="" style="endArrow=classic;startArrow=classic;html=1;strokeWidth=3;fontSize=22;fontColor=#000000;entryX=0.5;entryY=1;entryDx=0;entryDy=0;exitX=0.5;exitY=0;exitDx=0;exitDy=0;fillColor=#f8cecc;strokeColor=#b85450;" edge="1" parent="1" source="hbeQu_i2UAlogay5RclD-105" target="hbeQu_i2UAlogay5RclD-103">
                    <mxGeometry width="50" height="50" relative="1" as="geometry">
                        <mxPoint x="1900.5" y="2062.5" as="sourcePoint"/>
                        <mxPoint x="1950.5" y="2012.5" as="targetPoint"/>
                        <Array as="points">
                            <mxPoint x="1990.5" y="1942.5"/>
                        </Array>
                    </mxGeometry>
                </mxCell>
                <mxCell id="hbeQu_i2UAlogay5RclD-107" style="edgeStyle=none;html=1;exitX=0.5;exitY=0;exitDx=0;exitDy=0;entryX=-0.013;entryY=0.099;entryDx=0;entryDy=0;entryPerimeter=0;strokeWidth=3;fontSize=22;fontColor=#000000;fillColor=#f8cecc;strokeColor=#b85450;" edge="1" parent="1" target="hbeQu_i2UAlogay5RclD-108">
                    <mxGeometry relative="1" as="geometry">
                        <mxPoint x="1753" y="2450" as="sourcePoint"/>
                    </mxGeometry>
                </mxCell>
                <mxCell id="hbeQu_i2UAlogay5RclD-108" value="Request" style="swimlane;whiteSpace=wrap;html=1;strokeColor=#b85450;strokeWidth=3;fontSize=22;fillColor=#f8cecc;" vertex="1" parent="1">
                    <mxGeometry x="1933" y="2240" width="135" height="170" as="geometry"/>
                </mxCell>
                <mxCell id="hbeQu_i2UAlogay5RclD-109" style="edgeStyle=none;html=1;exitX=0;exitY=0.5;exitDx=0;exitDy=0;entryX=0.5;entryY=1;entryDx=0;entryDy=0;strokeWidth=3;fontSize=22;fontColor=#000000;fillColor=#f8cecc;strokeColor=#b85450;" edge="1" parent="1" source="hbeQu_i2UAlogay5RclD-110">
                    <mxGeometry relative="1" as="geometry">
                        <mxPoint x="1753" y="2490" as="targetPoint"/>
                    </mxGeometry>
                </mxCell>
                <mxCell id="hbeQu_i2UAlogay5RclD-110" value="Response" style="swimlane;whiteSpace=wrap;html=1;strokeColor=#b85450;strokeWidth=3;fontSize=22;fillColor=#f8cecc;" vertex="1" parent="1">
                    <mxGeometry x="1928" y="2530" width="140" height="170" as="geometry"/>
                </mxCell>
                <mxCell id="hbeQu_i2UAlogay5RclD-111" value="" style="endArrow=classic;startArrow=classic;html=1;strokeWidth=3;fontSize=22;fontColor=#000000;entryX=0.5;entryY=1;entryDx=0;entryDy=0;exitX=0.5;exitY=0;exitDx=0;exitDy=0;fillColor=#f8cecc;strokeColor=#b85450;" edge="1" parent="1" source="hbeQu_i2UAlogay5RclD-110" target="hbeQu_i2UAlogay5RclD-108">
                    <mxGeometry width="50" height="50" relative="1" as="geometry">
                        <mxPoint x="1908" y="2590" as="sourcePoint"/>
                        <mxPoint x="1958" y="2540" as="targetPoint"/>
                        <Array as="points">
                            <mxPoint x="1998" y="2470"/>
                        </Array>
                    </mxGeometry>
                </mxCell>
                <mxCell id="hbeQu_i2UAlogay5RclD-119" style="edgeStyle=none;html=1;exitX=0.5;exitY=0;exitDx=0;exitDy=0;entryX=-0.013;entryY=0.099;entryDx=0;entryDy=0;entryPerimeter=0;strokeWidth=3;fontSize=22;fontColor=#000000;fillColor=#f8cecc;strokeColor=#b85450;" edge="1" parent="1" target="hbeQu_i2UAlogay5RclD-120">
                    <mxGeometry relative="1" as="geometry">
                        <mxPoint x="817.5" y="3222.5" as="sourcePoint"/>
                    </mxGeometry>
                </mxCell>
                <mxCell id="hbeQu_i2UAlogay5RclD-120" value="Request" style="swimlane;whiteSpace=wrap;html=1;strokeColor=#b85450;strokeWidth=3;fontSize=22;fillColor=#f8cecc;" vertex="1" parent="1">
                    <mxGeometry x="1003.75" y="3012.5" width="135" height="170" as="geometry"/>
                </mxCell>
                <mxCell id="hbeQu_i2UAlogay5RclD-121" style="edgeStyle=none;html=1;exitX=0;exitY=0.5;exitDx=0;exitDy=0;entryX=0.5;entryY=1;entryDx=0;entryDy=0;strokeWidth=3;fontSize=22;fontColor=#000000;fillColor=#f8cecc;strokeColor=#b85450;" edge="1" parent="1" source="hbeQu_i2UAlogay5RclD-122">
                    <mxGeometry relative="1" as="geometry">
                        <mxPoint x="817.5" y="3262.5" as="targetPoint"/>
                    </mxGeometry>
                </mxCell>
                <mxCell id="hbeQu_i2UAlogay5RclD-122" value="Response" style="swimlane;whiteSpace=wrap;html=1;strokeColor=#b85450;strokeWidth=3;fontSize=22;fillColor=#f8cecc;" vertex="1" parent="1">
                    <mxGeometry x="992.5" y="3302.5" width="157.5" height="180" as="geometry"/>
                </mxCell>
                <mxCell id="hbeQu_i2UAlogay5RclD-123" value="" style="endArrow=classic;startArrow=classic;html=1;strokeWidth=3;fontSize=22;fontColor=#000000;entryX=0.5;entryY=1;entryDx=0;entryDy=0;exitX=0.5;exitY=0;exitDx=0;exitDy=0;fillColor=#f8cecc;strokeColor=#b85450;" edge="1" parent="1" source="hbeQu_i2UAlogay5RclD-122" target="hbeQu_i2UAlogay5RclD-120">
                    <mxGeometry width="50" height="50" relative="1" as="geometry">
                        <mxPoint x="972.5" y="3362.5" as="sourcePoint"/>
                        <mxPoint x="1022.5" y="3312.5" as="targetPoint"/>
                        <Array as="points"/>
                    </mxGeometry>
                </mxCell>
                <mxCell id="hbeQu_i2UAlogay5RclD-33" value="Show" style="text;html=1;strokeColor=#b85450;fillColor=#f8cecc;align=center;verticalAlign=middle;whiteSpace=wrap;rounded=0;strokeWidth=3;fontSize=22;" vertex="1" parent="1">
                    <mxGeometry x="1205" y="3222.5" width="120" height="40" as="geometry"/>
                </mxCell>
                <mxCell id="hbeQu_i2UAlogay5RclD-124" style="edgeStyle=none;html=1;exitX=0.5;exitY=0;exitDx=0;exitDy=0;entryX=-0.013;entryY=0.099;entryDx=0;entryDy=0;entryPerimeter=0;strokeWidth=3;fontSize=22;fontColor=#000000;fillColor=#f8cecc;strokeColor=#b85450;" edge="1" parent="1" target="hbeQu_i2UAlogay5RclD-125">
                    <mxGeometry relative="1" as="geometry">
                        <mxPoint x="1273" y="3222.5" as="sourcePoint"/>
                    </mxGeometry>
                </mxCell>
                <mxCell id="hbeQu_i2UAlogay5RclD-125" value="Request" style="swimlane;whiteSpace=wrap;html=1;strokeColor=#b85450;strokeWidth=3;fontSize=22;fillColor=#f8cecc;" vertex="1" parent="1">
                    <mxGeometry x="1453" y="3012.5" width="135" height="170" as="geometry"/>
                </mxCell>
                <mxCell id="hbeQu_i2UAlogay5RclD-126" style="edgeStyle=none;html=1;exitX=0;exitY=0.5;exitDx=0;exitDy=0;entryX=0.5;entryY=1;entryDx=0;entryDy=0;strokeWidth=3;fontSize=22;fontColor=#000000;fillColor=#f8cecc;strokeColor=#b85450;" edge="1" parent="1" source="hbeQu_i2UAlogay5RclD-127">
                    <mxGeometry relative="1" as="geometry">
                        <mxPoint x="1273" y="3262.5" as="targetPoint"/>
                    </mxGeometry>
                </mxCell>
                <mxCell id="hbeQu_i2UAlogay5RclD-127" value="Response" style="swimlane;whiteSpace=wrap;html=1;strokeColor=#b85450;strokeWidth=3;fontSize=22;fillColor=#f8cecc;" vertex="1" parent="1">
                    <mxGeometry x="1448" y="3302.5" width="140" height="170" as="geometry"/>
                </mxCell>
                <mxCell id="hbeQu_i2UAlogay5RclD-128" value="" style="endArrow=classic;startArrow=classic;html=1;strokeWidth=3;fontSize=22;fontColor=#000000;entryX=0.5;entryY=1;entryDx=0;entryDy=0;exitX=0.5;exitY=0;exitDx=0;exitDy=0;fillColor=#f8cecc;strokeColor=#b85450;" edge="1" parent="1" source="hbeQu_i2UAlogay5RclD-127" target="hbeQu_i2UAlogay5RclD-125">
                    <mxGeometry width="50" height="50" relative="1" as="geometry">
                        <mxPoint x="1428" y="3362.5" as="sourcePoint"/>
                        <mxPoint x="1478" y="3312.5" as="targetPoint"/>
                        <Array as="points">
                            <mxPoint x="1518" y="3242.5"/>
                        </Array>
                    </mxGeometry>
                </mxCell>
                <mxCell id="hbeQu_i2UAlogay5RclD-129" style="edgeStyle=none;html=1;exitX=0.5;exitY=0;exitDx=0;exitDy=0;entryX=-0.013;entryY=0.099;entryDx=0;entryDy=0;entryPerimeter=0;strokeWidth=3;fontSize=22;fontColor=#000000;fillColor=#f8cecc;strokeColor=#b85450;" edge="1" parent="1" target="hbeQu_i2UAlogay5RclD-130">
                    <mxGeometry relative="1" as="geometry">
                        <mxPoint x="1732.5" y="3222.5" as="sourcePoint"/>
                    </mxGeometry>
                </mxCell>
                <mxCell id="hbeQu_i2UAlogay5RclD-130" value="Request" style="swimlane;whiteSpace=wrap;html=1;strokeColor=#b85450;strokeWidth=3;fontSize=22;fillColor=#f8cecc;" vertex="1" parent="1">
                    <mxGeometry x="1912.5" y="3012.5" width="135" height="170" as="geometry"/>
                </mxCell>
                <mxCell id="hbeQu_i2UAlogay5RclD-131" style="edgeStyle=none;html=1;exitX=0;exitY=0.5;exitDx=0;exitDy=0;entryX=0.5;entryY=1;entryDx=0;entryDy=0;strokeWidth=3;fontSize=22;fontColor=#000000;fillColor=#f8cecc;strokeColor=#b85450;" edge="1" parent="1" source="hbeQu_i2UAlogay5RclD-132">
                    <mxGeometry relative="1" as="geometry">
                        <mxPoint x="1732.5" y="3262.5" as="targetPoint"/>
                    </mxGeometry>
                </mxCell>
                <mxCell id="hbeQu_i2UAlogay5RclD-132" value="Response" style="swimlane;whiteSpace=wrap;html=1;strokeColor=#b85450;strokeWidth=3;fontSize=22;fillColor=#f8cecc;" vertex="1" parent="1">
                    <mxGeometry x="1907.5" y="3302.5" width="140" height="170" as="geometry"/>
                </mxCell>
                <mxCell id="hbeQu_i2UAlogay5RclD-133" value="" style="endArrow=classic;startArrow=classic;html=1;strokeWidth=3;fontSize=22;fontColor=#000000;entryX=0.5;entryY=1;entryDx=0;entryDy=0;exitX=0.5;exitY=0;exitDx=0;exitDy=0;fillColor=#f8cecc;strokeColor=#b85450;" edge="1" parent="1" source="hbeQu_i2UAlogay5RclD-132" target="hbeQu_i2UAlogay5RclD-130">
                    <mxGeometry width="50" height="50" relative="1" as="geometry">
                        <mxPoint x="1887.5" y="3362.5" as="sourcePoint"/>
                        <mxPoint x="1937.5" y="3312.5" as="targetPoint"/>
                        <Array as="points">
                            <mxPoint x="1977.5" y="3242.5"/>
                        </Array>
                    </mxGeometry>
                </mxCell>
                <mxCell id="hbeQu_i2UAlogay5RclD-134" style="edgeStyle=none;html=1;exitX=0.5;exitY=0;exitDx=0;exitDy=0;entryX=-0.013;entryY=0.099;entryDx=0;entryDy=0;entryPerimeter=0;strokeWidth=3;fontSize=22;fontColor=#000000;fillColor=#f8cecc;strokeColor=#b85450;" edge="1" parent="1" target="hbeQu_i2UAlogay5RclD-135">
                    <mxGeometry relative="1" as="geometry">
                        <mxPoint x="2213" y="3222.5" as="sourcePoint"/>
                    </mxGeometry>
                </mxCell>
                <mxCell id="hbeQu_i2UAlogay5RclD-135" value="Request" style="swimlane;whiteSpace=wrap;html=1;strokeColor=#b85450;strokeWidth=3;fontSize=22;fillColor=#f8cecc;" vertex="1" parent="1">
                    <mxGeometry x="2393" y="3012.5" width="135" height="170" as="geometry"/>
                </mxCell>
                <mxCell id="hbeQu_i2UAlogay5RclD-136" style="edgeStyle=none;html=1;exitX=0;exitY=0.5;exitDx=0;exitDy=0;entryX=0.5;entryY=1;entryDx=0;entryDy=0;strokeWidth=3;fontSize=22;fontColor=#000000;fillColor=#f8cecc;strokeColor=#b85450;" edge="1" parent="1" source="hbeQu_i2UAlogay5RclD-137">
                    <mxGeometry relative="1" as="geometry">
                        <mxPoint x="2213" y="3262.5" as="targetPoint"/>
                    </mxGeometry>
                </mxCell>
                <mxCell id="hbeQu_i2UAlogay5RclD-137" value="Response" style="swimlane;whiteSpace=wrap;html=1;strokeColor=#b85450;strokeWidth=3;fontSize=22;fillColor=#f8cecc;" vertex="1" parent="1">
                    <mxGeometry x="2388" y="3302.5" width="140" height="170" as="geometry"/>
                </mxCell>
                <mxCell id="hbeQu_i2UAlogay5RclD-138" value="" style="endArrow=classic;startArrow=classic;html=1;strokeWidth=3;fontSize=22;fontColor=#000000;entryX=0.5;entryY=1;entryDx=0;entryDy=0;exitX=0.5;exitY=0;exitDx=0;exitDy=0;fillColor=#f8cecc;strokeColor=#b85450;" edge="1" parent="1" source="hbeQu_i2UAlogay5RclD-137" target="hbeQu_i2UAlogay5RclD-135">
                    <mxGeometry width="50" height="50" relative="1" as="geometry">
                        <mxPoint x="2368" y="3362.5" as="sourcePoint"/>
                        <mxPoint x="2418" y="3312.5" as="targetPoint"/>
                        <Array as="points">
                            <mxPoint x="2458" y="3242.5"/>
                        </Array>
                    </mxGeometry>
                </mxCell>
                <mxCell id="hbeQu_i2UAlogay5RclD-144" style="edgeStyle=none;html=1;exitX=0.5;exitY=0;exitDx=0;exitDy=0;entryX=-0.013;entryY=0.099;entryDx=0;entryDy=0;entryPerimeter=0;strokeWidth=3;fontSize=22;fontColor=#000000;fillColor=#f8cecc;strokeColor=#b85450;" edge="1" parent="1" target="hbeQu_i2UAlogay5RclD-145">
                    <mxGeometry relative="1" as="geometry">
                        <mxPoint x="2915" y="3012.5" as="sourcePoint"/>
                    </mxGeometry>
                </mxCell>
                <mxCell id="hbeQu_i2UAlogay5RclD-145" value="Request" style="swimlane;whiteSpace=wrap;html=1;strokeColor=#b85450;strokeWidth=3;fontSize=22;fillColor=#f8cecc;" vertex="1" parent="1">
                    <mxGeometry x="3095" y="2802.5" width="135" height="170" as="geometry"/>
                </mxCell>
                <mxCell id="hbeQu_i2UAlogay5RclD-146" style="edgeStyle=none;html=1;exitX=0;exitY=0.5;exitDx=0;exitDy=0;entryX=0.5;entryY=1;entryDx=0;entryDy=0;strokeWidth=3;fontSize=22;fontColor=#000000;fillColor=#f8cecc;strokeColor=#b85450;" edge="1" parent="1" source="hbeQu_i2UAlogay5RclD-147">
                    <mxGeometry relative="1" as="geometry">
                        <mxPoint x="2915" y="3052.5" as="targetPoint"/>
                    </mxGeometry>
                </mxCell>
                <mxCell id="hbeQu_i2UAlogay5RclD-147" value="Response" style="swimlane;whiteSpace=wrap;html=1;strokeColor=#b85450;strokeWidth=3;fontSize=22;fillColor=#f8cecc;" vertex="1" parent="1">
                    <mxGeometry x="3090" y="3092.5" width="140" height="145" as="geometry"/>
                </mxCell>
                <mxCell id="hbeQu_i2UAlogay5RclD-148" value="" style="endArrow=classic;startArrow=classic;html=1;strokeWidth=3;fontSize=22;fontColor=#000000;entryX=0.5;entryY=1;entryDx=0;entryDy=0;exitX=0.5;exitY=0;exitDx=0;exitDy=0;fillColor=#f8cecc;strokeColor=#b85450;" edge="1" parent="1" source="hbeQu_i2UAlogay5RclD-147" target="hbeQu_i2UAlogay5RclD-145">
                    <mxGeometry width="50" height="50" relative="1" as="geometry">
                        <mxPoint x="3070" y="3152.5" as="sourcePoint"/>
                        <mxPoint x="3120" y="3102.5" as="targetPoint"/>
                        <Array as="points">
                            <mxPoint x="3160" y="3032.5"/>
                        </Array>
                    </mxGeometry>
                </mxCell>
                <mxCell id="hbeQu_i2UAlogay5RclD-29" value="Show" style="text;html=1;strokeColor=#b85450;fillColor=#f8cecc;align=center;verticalAlign=middle;whiteSpace=wrap;rounded=0;strokeWidth=3;fontSize=22;" vertex="1" parent="1">
                    <mxGeometry x="2855" y="3527.5" width="120" height="40" as="geometry"/>
                </mxCell>
                <mxCell id="hbeQu_i2UAlogay5RclD-139" style="edgeStyle=none;html=1;exitX=0.5;exitY=0;exitDx=0;exitDy=0;entryX=-0.013;entryY=0.099;entryDx=0;entryDy=0;entryPerimeter=0;strokeWidth=3;fontSize=22;fontColor=#000000;fillColor=#f8cecc;strokeColor=#b85450;" edge="1" parent="1" target="hbeQu_i2UAlogay5RclD-140">
                    <mxGeometry relative="1" as="geometry">
                        <mxPoint x="2915" y="3527.5" as="sourcePoint"/>
                    </mxGeometry>
                </mxCell>
                <mxCell id="hbeQu_i2UAlogay5RclD-140" value="Request" style="swimlane;whiteSpace=wrap;html=1;strokeColor=#b85450;strokeWidth=3;fontSize=22;fillColor=#f8cecc;" vertex="1" parent="1">
                    <mxGeometry x="3095" y="3317.5" width="135" height="170" as="geometry"/>
                </mxCell>
                <mxCell id="hbeQu_i2UAlogay5RclD-141" style="edgeStyle=none;html=1;exitX=0;exitY=0.5;exitDx=0;exitDy=0;entryX=0.5;entryY=1;entryDx=0;entryDy=0;strokeWidth=3;fontSize=22;fontColor=#000000;fillColor=#f8cecc;strokeColor=#b85450;" edge="1" parent="1" source="hbeQu_i2UAlogay5RclD-142">
                    <mxGeometry relative="1" as="geometry">
                        <mxPoint x="2915" y="3567.5" as="targetPoint"/>
                    </mxGeometry>
                </mxCell>
                <mxCell id="hbeQu_i2UAlogay5RclD-142" value="Response" style="swimlane;whiteSpace=wrap;html=1;strokeColor=#b85450;strokeWidth=3;fontSize=22;fillColor=#f8cecc;" vertex="1" parent="1">
                    <mxGeometry x="3090" y="3607.5" width="140" height="170" as="geometry"/>
                </mxCell>
                <mxCell id="hbeQu_i2UAlogay5RclD-143" value="" style="endArrow=classic;startArrow=classic;html=1;strokeWidth=3;fontSize=22;fontColor=#000000;entryX=0.5;entryY=1;entryDx=0;entryDy=0;exitX=0.5;exitY=0;exitDx=0;exitDy=0;fillColor=#f8cecc;strokeColor=#b85450;" edge="1" parent="1" source="hbeQu_i2UAlogay5RclD-142" target="hbeQu_i2UAlogay5RclD-140">
                    <mxGeometry width="50" height="50" relative="1" as="geometry">
                        <mxPoint x="3070" y="3667.5" as="sourcePoint"/>
                        <mxPoint x="3120" y="3617.5" as="targetPoint"/>
                        <Array as="points">
                            <mxPoint x="3160" y="3547.5"/>
                        </Array>
                    </mxGeometry>
                </mxCell>
                <mxCell id="hbeQu_i2UAlogay5RclD-149" style="edgeStyle=none;html=1;exitX=0.5;exitY=0;exitDx=0;exitDy=0;entryX=-0.013;entryY=0.099;entryDx=0;entryDy=0;entryPerimeter=0;strokeWidth=3;fontSize=22;fontColor=#000000;fillColor=#f8cecc;strokeColor=#b85450;" edge="1" parent="1" target="hbeQu_i2UAlogay5RclD-150">
                    <mxGeometry relative="1" as="geometry">
                        <mxPoint x="564" y="4185" as="sourcePoint"/>
                    </mxGeometry>
                </mxCell>
                <mxCell id="hbeQu_i2UAlogay5RclD-150" value="Request" style="swimlane;whiteSpace=wrap;html=1;strokeColor=#b85450;strokeWidth=3;fontSize=22;fillColor=#f8cecc;" vertex="1" parent="1">
                    <mxGeometry x="744" y="3975" width="135" height="170" as="geometry"/>
                </mxCell>
                <mxCell id="hbeQu_i2UAlogay5RclD-151" style="edgeStyle=none;html=1;exitX=0;exitY=0.5;exitDx=0;exitDy=0;entryX=0.5;entryY=1;entryDx=0;entryDy=0;strokeWidth=3;fontSize=22;fontColor=#000000;fillColor=#f8cecc;strokeColor=#b85450;" edge="1" parent="1" source="hbeQu_i2UAlogay5RclD-152">
                    <mxGeometry relative="1" as="geometry">
                        <mxPoint x="564" y="4225" as="targetPoint"/>
                    </mxGeometry>
                </mxCell>
                <mxCell id="hbeQu_i2UAlogay5RclD-152" value="Response" style="swimlane;whiteSpace=wrap;html=1;strokeColor=#b85450;strokeWidth=3;fontSize=22;fillColor=#f8cecc;" vertex="1" parent="1">
                    <mxGeometry x="739" y="4265" width="140" height="170" as="geometry"/>
                </mxCell>
                <mxCell id="hbeQu_i2UAlogay5RclD-153" value="" style="endArrow=classic;startArrow=classic;html=1;strokeWidth=3;fontSize=22;fontColor=#000000;entryX=0.5;entryY=1;entryDx=0;entryDy=0;exitX=0.5;exitY=0;exitDx=0;exitDy=0;fillColor=#f8cecc;strokeColor=#b85450;" edge="1" parent="1" source="hbeQu_i2UAlogay5RclD-152" target="hbeQu_i2UAlogay5RclD-150">
                    <mxGeometry width="50" height="50" relative="1" as="geometry">
                        <mxPoint x="719" y="4325" as="sourcePoint"/>
                        <mxPoint x="769" y="4275" as="targetPoint"/>
                        <Array as="points">
                            <mxPoint x="809" y="4205"/>
                        </Array>
                    </mxGeometry>
                </mxCell>
                <mxCell id="gFweoGBymR-3OyI3qo6x-24" value="Response" style="swimlane;whiteSpace=wrap;html=1;strokeColor=#b85450;strokeWidth=3;fontSize=22;fillColor=#f8cecc;" vertex="1" parent="1">
                    <mxGeometry x="2247.5" y="1050" width="140" height="390" as="geometry"/>
                </mxCell>
                <mxCell id="gFweoGBymR-3OyI3qo6x-25" value="&lt;span style=&quot;font-size: 12px; text-align: left;&quot;&gt;&lt;b&gt;first_name&lt;/b&gt;&lt;/span&gt;" style="text;html=1;align=center;verticalAlign=middle;whiteSpace=wrap;rounded=0;strokeWidth=2;fontSize=22;" vertex="1" parent="gFweoGBymR-3OyI3qo6x-24">
                    <mxGeometry x="5" y="60" width="130" height="30" as="geometry"/>
                </mxCell>
                <mxCell id="gFweoGBymR-3OyI3qo6x-26" value="&lt;span style=&quot;font-size: 12px; text-align: left;&quot;&gt;&lt;b&gt;last_name&lt;/b&gt;&lt;/span&gt;" style="text;html=1;align=center;verticalAlign=middle;whiteSpace=wrap;rounded=0;strokeWidth=2;fontSize=22;" vertex="1" parent="gFweoGBymR-3OyI3qo6x-24">
                    <mxGeometry x="5" y="90" width="130" height="30" as="geometry"/>
                </mxCell>
                <mxCell id="gFweoGBymR-3OyI3qo6x-27" value="&lt;div style=&quot;text-align: left;&quot;&gt;&lt;span style=&quot;background-color: initial; font-size: 12px;&quot;&gt;&lt;b&gt;middle_name&lt;/b&gt;&lt;/span&gt;&lt;/div&gt;" style="text;html=1;align=center;verticalAlign=middle;whiteSpace=wrap;rounded=0;strokeWidth=2;fontSize=22;" vertex="1" parent="gFweoGBymR-3OyI3qo6x-24">
                    <mxGeometry x="5" y="120" width="130" height="30" as="geometry"/>
                </mxCell>
                <mxCell id="gFweoGBymR-3OyI3qo6x-28" value="&lt;span style=&quot;font-size: 12px; text-align: left;&quot;&gt;&lt;b&gt;age&lt;/b&gt;&lt;/span&gt;" style="text;html=1;align=center;verticalAlign=middle;whiteSpace=wrap;rounded=0;strokeWidth=2;fontSize=22;" vertex="1" parent="gFweoGBymR-3OyI3qo6x-24">
                    <mxGeometry x="5" y="150" width="130" height="30" as="geometry"/>
                </mxCell>
                <mxCell id="gFweoGBymR-3OyI3qo6x-29" value="&lt;div style=&quot;text-align: left;&quot;&gt;&lt;span style=&quot;background-color: initial; font-size: 12px;&quot;&gt;&lt;b&gt;role&lt;/b&gt;&lt;/span&gt;&lt;/div&gt;" style="text;html=1;align=center;verticalAlign=middle;whiteSpace=wrap;rounded=0;strokeWidth=2;fontSize=22;" vertex="1" parent="gFweoGBymR-3OyI3qo6x-24">
                    <mxGeometry x="5" y="180" width="130" height="30" as="geometry"/>
                </mxCell>
                <mxCell id="gFweoGBymR-3OyI3qo6x-30" value="&lt;div style=&quot;text-align: left;&quot;&gt;&lt;span style=&quot;background-color: initial; font-size: 12px;&quot;&gt;&lt;b&gt;gender&lt;/b&gt;&lt;/span&gt;&lt;/div&gt;" style="text;html=1;align=center;verticalAlign=middle;whiteSpace=wrap;rounded=0;strokeWidth=2;fontSize=22;" vertex="1" parent="gFweoGBymR-3OyI3qo6x-24">
                    <mxGeometry x="5" y="210" width="130" height="30" as="geometry"/>
                </mxCell>
                <mxCell id="gFweoGBymR-3OyI3qo6x-31" value="&lt;div style=&quot;text-align: left;&quot;&gt;&lt;span style=&quot;background-color: initial; font-size: 12px;&quot;&gt;&lt;b&gt;image&lt;/b&gt;&lt;/span&gt;&lt;/div&gt;" style="text;html=1;align=center;verticalAlign=middle;whiteSpace=wrap;rounded=0;strokeWidth=2;fontSize=22;" vertex="1" parent="gFweoGBymR-3OyI3qo6x-24">
                    <mxGeometry x="5" y="240" width="130" height="30" as="geometry"/>
                </mxCell>
                <mxCell id="gFweoGBymR-3OyI3qo6x-32" value="&lt;div style=&quot;text-align: left;&quot;&gt;&lt;span style=&quot;background-color: initial; font-size: 12px;&quot;&gt;&lt;b&gt;weight&lt;/b&gt;&lt;/span&gt;&lt;/div&gt;" style="text;html=1;align=center;verticalAlign=middle;whiteSpace=wrap;rounded=0;strokeWidth=2;fontSize=22;" vertex="1" parent="gFweoGBymR-3OyI3qo6x-24">
                    <mxGeometry x="5" y="270" width="130" height="30" as="geometry"/>
                </mxCell>
                <mxCell id="gFweoGBymR-3OyI3qo6x-33" value="&lt;div style=&quot;text-align: left;&quot;&gt;&lt;span style=&quot;background-color: initial; font-size: 12px;&quot;&gt;&lt;b&gt;height&lt;/b&gt;&lt;/span&gt;&lt;/div&gt;" style="text;html=1;align=center;verticalAlign=middle;whiteSpace=wrap;rounded=0;strokeWidth=2;fontSize=22;" vertex="1" parent="gFweoGBymR-3OyI3qo6x-24">
                    <mxGeometry x="5" y="300" width="130" height="30" as="geometry"/>
                </mxCell>
                <mxCell id="gFweoGBymR-3OyI3qo6x-34" value="&lt;div style=&quot;text-align: left;&quot;&gt;&lt;span style=&quot;background-color: initial; font-size: 12px;&quot;&gt;&lt;b&gt;size_cloth&lt;/b&gt;&lt;/span&gt;&lt;/div&gt;" style="text;html=1;align=center;verticalAlign=middle;whiteSpace=wrap;rounded=0;strokeWidth=2;fontSize=22;" vertex="1" parent="gFweoGBymR-3OyI3qo6x-24">
                    <mxGeometry x="5" y="330" width="130" height="30" as="geometry"/>
                </mxCell>
                <mxCell id="gFweoGBymR-3OyI3qo6x-35" value="&lt;div style=&quot;text-align: left;&quot;&gt;&lt;span style=&quot;background-color: initial; font-size: 12px;&quot;&gt;&lt;b&gt;phone&lt;/b&gt;&lt;/span&gt;&lt;/div&gt;" style="text;html=1;align=center;verticalAlign=middle;whiteSpace=wrap;rounded=0;strokeWidth=2;fontSize=22;" vertex="1" parent="gFweoGBymR-3OyI3qo6x-24">
                    <mxGeometry x="5" y="360" width="130" height="30" as="geometry"/>
                </mxCell>
                <mxCell id="gFweoGBymR-3OyI3qo6x-45" value="&lt;span style=&quot;font-size: 12px; text-align: left;&quot;&gt;&lt;b&gt;id&lt;/b&gt;&lt;/span&gt;" style="text;html=1;align=center;verticalAlign=middle;whiteSpace=wrap;rounded=0;strokeWidth=2;fontSize=22;" vertex="1" parent="gFweoGBymR-3OyI3qo6x-24">
                    <mxGeometry x="5" y="30" width="130" height="30" as="geometry"/>
                </mxCell>
                <mxCell id="gFweoGBymR-3OyI3qo6x-46" value="Request" style="swimlane;whiteSpace=wrap;html=1;strokeColor=#b85450;strokeWidth=3;fontSize=22;fillColor=#f8cecc;" vertex="1" parent="1">
                    <mxGeometry x="2247.5" y="540" width="140" height="390" as="geometry"/>
                </mxCell>
                <mxCell id="gFweoGBymR-3OyI3qo6x-47" value="&lt;span style=&quot;font-size: 12px; text-align: left;&quot;&gt;&lt;b&gt;first_name&lt;/b&gt;&lt;/span&gt;" style="text;html=1;align=center;verticalAlign=middle;whiteSpace=wrap;rounded=0;strokeWidth=2;fontSize=22;" vertex="1" parent="gFweoGBymR-3OyI3qo6x-46">
                    <mxGeometry x="5" y="60" width="130" height="30" as="geometry"/>
                </mxCell>
                <mxCell id="gFweoGBymR-3OyI3qo6x-48" value="&lt;span style=&quot;font-size: 12px; text-align: left;&quot;&gt;&lt;b&gt;last_name&lt;/b&gt;&lt;/span&gt;" style="text;html=1;align=center;verticalAlign=middle;whiteSpace=wrap;rounded=0;strokeWidth=2;fontSize=22;" vertex="1" parent="gFweoGBymR-3OyI3qo6x-46">
                    <mxGeometry x="5" y="90" width="130" height="30" as="geometry"/>
                </mxCell>
                <mxCell id="gFweoGBymR-3OyI3qo6x-49" value="&lt;div style=&quot;text-align: left;&quot;&gt;&lt;span style=&quot;background-color: initial; font-size: 12px;&quot;&gt;&lt;b&gt;middle_name&lt;/b&gt;&lt;/span&gt;&lt;/div&gt;" style="text;html=1;align=center;verticalAlign=middle;whiteSpace=wrap;rounded=0;strokeWidth=2;fontSize=22;" vertex="1" parent="gFweoGBymR-3OyI3qo6x-46">
                    <mxGeometry x="5" y="120" width="130" height="30" as="geometry"/>
                </mxCell>
                <mxCell id="gFweoGBymR-3OyI3qo6x-50" value="&lt;span style=&quot;font-size: 12px; text-align: left;&quot;&gt;&lt;b&gt;age&lt;/b&gt;&lt;/span&gt;" style="text;html=1;align=center;verticalAlign=middle;whiteSpace=wrap;rounded=0;strokeWidth=2;fontSize=22;" vertex="1" parent="gFweoGBymR-3OyI3qo6x-46">
                    <mxGeometry x="5" y="150" width="130" height="30" as="geometry"/>
                </mxCell>
                <mxCell id="gFweoGBymR-3OyI3qo6x-51" value="&lt;div style=&quot;text-align: left;&quot;&gt;&lt;span style=&quot;background-color: initial; font-size: 12px;&quot;&gt;&lt;b&gt;role&lt;/b&gt;&lt;/span&gt;&lt;/div&gt;" style="text;html=1;align=center;verticalAlign=middle;whiteSpace=wrap;rounded=0;strokeWidth=2;fontSize=22;" vertex="1" parent="gFweoGBymR-3OyI3qo6x-46">
                    <mxGeometry x="5" y="180" width="130" height="30" as="geometry"/>
                </mxCell>
                <mxCell id="gFweoGBymR-3OyI3qo6x-52" value="&lt;div style=&quot;text-align: left;&quot;&gt;&lt;span style=&quot;background-color: initial; font-size: 12px;&quot;&gt;&lt;b&gt;gender&lt;/b&gt;&lt;/span&gt;&lt;/div&gt;" style="text;html=1;align=center;verticalAlign=middle;whiteSpace=wrap;rounded=0;strokeWidth=2;fontSize=22;" vertex="1" parent="gFweoGBymR-3OyI3qo6x-46">
                    <mxGeometry x="5" y="210" width="130" height="30" as="geometry"/>
                </mxCell>
                <mxCell id="gFweoGBymR-3OyI3qo6x-53" value="&lt;div style=&quot;text-align: left;&quot;&gt;&lt;span style=&quot;background-color: initial; font-size: 12px;&quot;&gt;&lt;b&gt;image&lt;/b&gt;&lt;/span&gt;&lt;/div&gt;" style="text;html=1;align=center;verticalAlign=middle;whiteSpace=wrap;rounded=0;strokeWidth=2;fontSize=22;" vertex="1" parent="gFweoGBymR-3OyI3qo6x-46">
                    <mxGeometry x="5" y="240" width="130" height="30" as="geometry"/>
                </mxCell>
                <mxCell id="gFweoGBymR-3OyI3qo6x-54" value="&lt;div style=&quot;text-align: left;&quot;&gt;&lt;span style=&quot;background-color: initial; font-size: 12px;&quot;&gt;&lt;b&gt;weight&lt;/b&gt;&lt;/span&gt;&lt;/div&gt;" style="text;html=1;align=center;verticalAlign=middle;whiteSpace=wrap;rounded=0;strokeWidth=2;fontSize=22;" vertex="1" parent="gFweoGBymR-3OyI3qo6x-46">
                    <mxGeometry x="5" y="270" width="130" height="30" as="geometry"/>
                </mxCell>
                <mxCell id="gFweoGBymR-3OyI3qo6x-55" value="&lt;div style=&quot;text-align: left;&quot;&gt;&lt;span style=&quot;background-color: initial; font-size: 12px;&quot;&gt;&lt;b&gt;height&lt;/b&gt;&lt;/span&gt;&lt;/div&gt;" style="text;html=1;align=center;verticalAlign=middle;whiteSpace=wrap;rounded=0;strokeWidth=2;fontSize=22;" vertex="1" parent="gFweoGBymR-3OyI3qo6x-46">
                    <mxGeometry x="5" y="300" width="130" height="30" as="geometry"/>
                </mxCell>
                <mxCell id="gFweoGBymR-3OyI3qo6x-56" value="&lt;div style=&quot;text-align: left;&quot;&gt;&lt;span style=&quot;background-color: initial; font-size: 12px;&quot;&gt;&lt;b&gt;size_cloth&lt;/b&gt;&lt;/span&gt;&lt;/div&gt;" style="text;html=1;align=center;verticalAlign=middle;whiteSpace=wrap;rounded=0;strokeWidth=2;fontSize=22;" vertex="1" parent="gFweoGBymR-3OyI3qo6x-46">
                    <mxGeometry x="5" y="330" width="130" height="30" as="geometry"/>
                </mxCell>
                <mxCell id="gFweoGBymR-3OyI3qo6x-57" value="&lt;div style=&quot;text-align: left;&quot;&gt;&lt;span style=&quot;background-color: initial; font-size: 12px;&quot;&gt;&lt;b&gt;phone&lt;/b&gt;&lt;/span&gt;&lt;/div&gt;" style="text;html=1;align=center;verticalAlign=middle;whiteSpace=wrap;rounded=0;strokeWidth=2;fontSize=22;" vertex="1" parent="gFweoGBymR-3OyI3qo6x-46">
                    <mxGeometry x="5" y="360" width="130" height="30" as="geometry"/>
                </mxCell>
                <mxCell id="gFweoGBymR-3OyI3qo6x-58" value="&lt;span style=&quot;font-size: 12px; text-align: left;&quot;&gt;&lt;b&gt;id&lt;/b&gt;&lt;/span&gt;" style="text;html=1;align=center;verticalAlign=middle;whiteSpace=wrap;rounded=0;strokeWidth=2;fontSize=22;" vertex="1" parent="gFweoGBymR-3OyI3qo6x-46">
                    <mxGeometry x="5" y="30" width="130" height="30" as="geometry"/>
                </mxCell>
                <mxCell id="gFweoGBymR-3OyI3qo6x-59" value="Set/Code" style="text;html=1;strokeColor=#b85450;fillColor=#f8cecc;align=center;verticalAlign=middle;whiteSpace=wrap;rounded=0;strokeWidth=3;fontSize=22;" vertex="1" parent="1">
                    <mxGeometry x="1100" y="970" width="120" height="40" as="geometry"/>
                </mxCell>
                <mxCell id="gFweoGBymR-3OyI3qo6x-60" style="edgeStyle=none;html=1;exitX=0.5;exitY=0;exitDx=0;exitDy=0;entryX=-0.013;entryY=0.099;entryDx=0;entryDy=0;entryPerimeter=0;strokeWidth=3;fontSize=22;fontColor=#000000;fillColor=#f8cecc;strokeColor=#b85450;" edge="1" parent="1" target="gFweoGBymR-3OyI3qo6x-61">
                    <mxGeometry relative="1" as="geometry">
                        <mxPoint x="1165" y="970" as="sourcePoint"/>
                    </mxGeometry>
                </mxCell>
                <mxCell id="gFweoGBymR-3OyI3qo6x-61" value="Request" style="swimlane;whiteSpace=wrap;html=1;strokeColor=#b85450;strokeWidth=3;fontSize=22;fillColor=#f8cecc;" vertex="1" parent="1">
                    <mxGeometry x="1345" y="760" width="135" height="70" as="geometry"/>
                </mxCell>
                <mxCell id="gFweoGBymR-3OyI3qo6x-62" value="&lt;div style=&quot;text-align: left;&quot;&gt;&lt;span style=&quot;background-color: initial; font-size: 12px;&quot;&gt;&lt;b&gt;phone&lt;/b&gt;&lt;/span&gt;&lt;/div&gt;" style="text;html=1;align=center;verticalAlign=middle;whiteSpace=wrap;rounded=0;strokeWidth=2;fontSize=22;" vertex="1" parent="gFweoGBymR-3OyI3qo6x-61">
                    <mxGeometry x="2.5" y="30" width="130" height="30" as="geometry"/>
                </mxCell>
                <mxCell id="gFweoGBymR-3OyI3qo6x-64" style="edgeStyle=none;html=1;exitX=0;exitY=0.5;exitDx=0;exitDy=0;entryX=0.5;entryY=1;entryDx=0;entryDy=0;strokeWidth=3;fontSize=22;fontColor=#000000;fillColor=#f8cecc;strokeColor=#b85450;" edge="1" parent="1" source="gFweoGBymR-3OyI3qo6x-65">
                    <mxGeometry relative="1" as="geometry">
                        <mxPoint x="1165" y="1010" as="targetPoint"/>
                    </mxGeometry>
                </mxCell>
                <mxCell id="gFweoGBymR-3OyI3qo6x-65" value="Response" style="swimlane;whiteSpace=wrap;html=1;strokeColor=#b85450;strokeWidth=3;fontSize=22;fillColor=#f8cecc;" vertex="1" parent="1">
                    <mxGeometry x="1340" y="1080" width="140" height="60" as="geometry"/>
                </mxCell>
                <mxCell id="gFweoGBymR-3OyI3qo6x-80" value="&lt;span style=&quot;font-size: 12px; text-align: left;&quot;&gt;&lt;b&gt;message&lt;/b&gt;&lt;/span&gt;" style="text;html=1;align=center;verticalAlign=middle;whiteSpace=wrap;rounded=0;strokeWidth=2;fontSize=22;" vertex="1" parent="gFweoGBymR-3OyI3qo6x-65">
                    <mxGeometry x="7.5" y="30" width="130" height="30" as="geometry"/>
                </mxCell>
                <mxCell id="gFweoGBymR-3OyI3qo6x-79" value="" style="endArrow=classic;startArrow=classic;html=1;strokeWidth=3;fontSize=22;fontColor=#000000;entryX=0.5;entryY=1;entryDx=0;entryDy=0;exitX=0.5;exitY=0;exitDx=0;exitDy=0;fillColor=#f8cecc;strokeColor=#b85450;" edge="1" parent="1" source="gFweoGBymR-3OyI3qo6x-65" target="gFweoGBymR-3OyI3qo6x-61">
                    <mxGeometry width="50" height="50" relative="1" as="geometry">
                        <mxPoint x="1320" y="1110" as="sourcePoint"/>
                        <mxPoint x="1370" y="1060" as="targetPoint"/>
                        <Array as="points">
                            <mxPoint x="1410" y="990"/>
                        </Array>
                    </mxGeometry>
                </mxCell>
                <mxCell id="gFweoGBymR-3OyI3qo6x-81" style="edgeStyle=none;html=1;exitX=0.5;exitY=0;exitDx=0;exitDy=0;entryX=-0.013;entryY=0.099;entryDx=0;entryDy=0;entryPerimeter=0;strokeWidth=3;fontSize=22;fontColor=#000000;fillColor=#f8cecc;strokeColor=#b85450;" edge="1" parent="1" target="gFweoGBymR-3OyI3qo6x-82">
                    <mxGeometry relative="1" as="geometry">
                        <mxPoint x="2520" y="970" as="sourcePoint"/>
                    </mxGeometry>
                </mxCell>
                <mxCell id="gFweoGBymR-3OyI3qo6x-82" value="Request" style="swimlane;whiteSpace=wrap;html=1;strokeColor=#b85450;strokeWidth=3;fontSize=22;fillColor=#f8cecc;" vertex="1" parent="1">
                    <mxGeometry x="2700" y="760" width="135" height="70" as="geometry"/>
                </mxCell>
                <mxCell id="gFweoGBymR-3OyI3qo6x-83" value="&lt;div style=&quot;text-align: left;&quot;&gt;&lt;span style=&quot;background-color: initial; font-size: 12px;&quot;&gt;&lt;b&gt;id&lt;/b&gt;&lt;/span&gt;&lt;/div&gt;" style="text;html=1;align=center;verticalAlign=middle;whiteSpace=wrap;rounded=0;strokeWidth=2;fontSize=22;" vertex="1" parent="gFweoGBymR-3OyI3qo6x-82">
                    <mxGeometry x="2.5" y="30" width="130" height="30" as="geometry"/>
                </mxCell>
                <mxCell id="gFweoGBymR-3OyI3qo6x-84" style="edgeStyle=none;html=1;exitX=0;exitY=0.5;exitDx=0;exitDy=0;entryX=0.5;entryY=1;entryDx=0;entryDy=0;strokeWidth=3;fontSize=22;fontColor=#000000;fillColor=#f8cecc;strokeColor=#b85450;" edge="1" parent="1" source="gFweoGBymR-3OyI3qo6x-85">
                    <mxGeometry relative="1" as="geometry">
                        <mxPoint x="2520" y="1010" as="targetPoint"/>
                    </mxGeometry>
                </mxCell>
                <mxCell id="gFweoGBymR-3OyI3qo6x-85" value="Response" style="swimlane;whiteSpace=wrap;html=1;strokeColor=#b85450;strokeWidth=3;fontSize=22;fillColor=#f8cecc;" vertex="1" parent="1">
                    <mxGeometry x="2695" y="1080" width="140" height="60" as="geometry"/>
                </mxCell>
                <mxCell id="gFweoGBymR-3OyI3qo6x-86" value="&lt;span style=&quot;font-size: 12px; text-align: left;&quot;&gt;&lt;b&gt;message&lt;/b&gt;&lt;/span&gt;" style="text;html=1;align=center;verticalAlign=middle;whiteSpace=wrap;rounded=0;strokeWidth=2;fontSize=22;" vertex="1" parent="gFweoGBymR-3OyI3qo6x-85">
                    <mxGeometry x="7.5" y="30" width="130" height="30" as="geometry"/>
                </mxCell>
                <mxCell id="gFweoGBymR-3OyI3qo6x-87" value="" style="endArrow=classic;startArrow=classic;html=1;strokeWidth=3;fontSize=22;fontColor=#000000;entryX=0.5;entryY=1;entryDx=0;entryDy=0;exitX=0.5;exitY=0;exitDx=0;exitDy=0;fillColor=#f8cecc;strokeColor=#b85450;" edge="1" parent="1" source="gFweoGBymR-3OyI3qo6x-85" target="gFweoGBymR-3OyI3qo6x-82">
                    <mxGeometry width="50" height="50" relative="1" as="geometry">
                        <mxPoint x="2675" y="1110" as="sourcePoint"/>
                        <mxPoint x="2725" y="1060" as="targetPoint"/>
                        <Array as="points">
                            <mxPoint x="2765" y="990"/>
                        </Array>
                    </mxGeometry>
                </mxCell>
            </root>
        </mxGraphModel>
    </diagram>
</mxfile>